<svg width="202" height="200" viewBox="0 0 202 200" fill="none" xmlns="http://www.w3.org/2000/svg">
<path d="M134.742 13.1905L136.094 4.70312L137.137 5.15125L136.38 9.41234C136.199 10.4631 135.99 11.5062 135.808 12.302L135.832 12.3136C136.284 11.6066 136.913 10.7992 137.601 9.92614L140.286 6.50723L141.317 6.95149L140.576 11.2358C140.402 12.2363 140.212 13.233 139.981 14.0868L140.004 14.0984C140.525 13.3257 141.105 12.5685 141.754 11.7187L144.427 8.29201L145.439 8.72855L139.977 15.4428L138.945 14.9985L139.695 10.5983C139.876 9.5205 140.039 8.70151 140.27 7.88638L140.247 7.87479C139.784 8.57789 139.289 9.25395 138.582 10.1193L135.778 13.6348L134.742 13.1905Z" fill="#282828"/>
<path d="M151.937 12.3492L150.11 15.32L153.54 17.4331L155.368 14.4623L156.295 15.0341L151.929 22.1307L151.002 21.559L153.05 18.2328L149.619 16.1196L147.572 19.4458L146.656 18.8818L151.022 11.7852L151.937 12.3492Z" fill="#282828"/>
<path d="M159.511 24.4174L157.19 25.9086L156.324 25.2094L163.765 20.5156L164.773 21.3308L161.744 29.5941L160.852 28.8717L161.81 26.2756L159.511 24.4174ZM162.165 25.4837L163.038 23.1078C163.235 22.567 163.452 22.1073 163.66 21.6553L163.641 21.6398C163.235 21.945 162.81 22.2541 162.366 22.5477L160.214 23.9075L162.165 25.4837Z" fill="#282828"/>
<path d="M171.375 28.5275L169.59 26.7311L170.239 26.0859L174.585 30.4629L173.936 31.1081L172.14 29.3001L166.878 34.527L166.113 33.7543L171.375 28.5275Z" fill="#282828"/>
<path d="M183.041 41.0117C183.404 41.3942 183.845 41.9157 184.331 42.6343C184.926 43.5151 185.158 44.2993 185.065 44.9599C184.992 45.5587 184.644 46.1266 184.03 46.5399C183.404 46.961 182.79 47.1117 182.195 47.0035C181.376 46.8722 180.6 46.2772 180.012 45.4041C179.831 45.1376 179.676 44.8865 179.591 44.647L176.825 46.5167L176.223 45.6243L183.041 41.0117ZM180.31 44.1525C180.391 44.3804 180.534 44.6431 180.735 44.9406C181.461 46.0145 182.427 46.3197 183.381 45.6746C184.293 45.0603 184.297 44.1138 183.632 43.1326C183.37 42.7424 183.138 42.4681 182.991 42.3406L180.31 44.1525Z" fill="#282828"/>
<path d="M187.392 56.7314L185.893 53.8572L183.228 55.2479L184.897 58.4505L184.097 58.8677L181.93 54.7109L189.32 50.8555L191.402 54.8461L190.603 55.2634L189.019 52.2269L186.685 53.4438L188.184 56.318L187.392 56.7314Z" fill="#282828"/>
<path d="M192.858 69.1004C190.169 70.1009 188.137 68.9961 187.396 67.0027C186.627 64.9397 187.689 62.8961 190.054 62.0192C192.534 61.0959 194.728 62.0346 195.504 64.1207C196.296 66.2532 195.176 68.2389 192.858 69.1004ZM190.478 63.0854C188.81 63.7074 187.651 65.1677 188.242 66.7554C188.837 68.3548 190.645 68.7102 192.418 68.0535C193.971 67.4778 195.292 66.0601 194.666 64.3796C194.044 62.7107 192.194 62.448 190.478 63.0854Z" fill="#282828"/>
<path d="M198.399 74.043C198.6 74.5297 198.828 75.1749 199.025 76.0171C199.264 77.0524 199.202 77.8675 198.878 78.4509C198.596 78.9878 198.067 79.3896 197.344 79.5557C196.61 79.7257 195.98 79.6446 195.463 79.3317C194.744 78.9144 194.234 78.08 193.995 77.0562C193.921 76.7433 193.867 76.4497 193.871 76.1948L190.618 76.9519L190.375 75.905L198.399 74.043ZM194.729 76.0016C194.721 76.245 194.764 76.5386 194.845 76.8863C195.138 78.1495 195.93 78.7792 197.051 78.5204C198.121 78.2693 198.464 77.3923 198.194 76.2372C198.086 75.7814 197.97 75.4376 197.881 75.2676L194.729 76.0016Z" fill="#282828"/>
<path d="M200.736 85.4805L200.859 86.5506L193.481 87.4121L193.894 90.9469L192.998 91.0512L192.461 86.4463L200.736 85.4805Z" fill="#282828"/>
<path d="M197.249 100.662L197.194 97.4247L194.189 97.4749L194.247 101.083L193.343 101.099L193.266 96.4126L201.598 96.2773L201.672 100.778L200.768 100.793L200.714 97.3706L198.079 97.4131L198.133 100.65L197.249 100.662Z" fill="#282828"/>
<path d="M193.554 113.566C193.176 113.987 192.809 114.64 192.681 115.37C192.488 116.451 192.948 117.189 193.775 117.336C194.539 117.471 195.057 117.112 195.683 116.081C196.398 114.825 197.24 114.122 198.395 114.331C199.674 114.558 200.431 115.787 200.149 117.382C199.998 118.221 199.697 118.796 199.423 119.125L198.611 118.677C198.804 118.433 199.144 117.931 199.28 117.189C199.48 116.069 198.886 115.524 198.325 115.424C197.56 115.289 197.093 115.717 196.452 116.772C195.667 118.062 194.872 118.65 193.666 118.433C192.399 118.209 191.472 117.073 191.82 115.142C191.963 114.35 192.345 113.527 192.716 113.145L193.554 113.566Z" fill="#282828"/>
<path d="M192.237 125.564L189.985 123.973L190.309 122.91L197.452 128.052L197.074 129.292L188.273 129.578L188.61 128.477L191.376 128.392L192.237 125.564ZM192.245 128.423L194.775 128.342C195.351 128.322 195.861 128.349 196.355 128.373L196.363 128.35C195.926 128.087 195.482 127.809 195.042 127.507L192.975 126.024L192.245 128.423Z" fill="#282828"/>
<path d="M185.948 135.395L189.193 136.801L194.64 136.291L194.154 137.415L191.577 137.577C190.87 137.62 190.306 137.647 189.672 137.654L189.661 137.678C190.066 138.11 190.453 138.586 190.905 139.134L192.539 141.147L192.052 142.271L188.772 137.805L185.516 136.395L185.948 135.395Z" fill="#282828"/>
<path d="M179.933 151.993L178.271 149.791L178.905 148.875L184.143 155.945L183.406 157.011L174.938 154.604L175.594 153.658L178.256 154.419L179.933 151.993ZM179.067 154.716L181.505 155.411C182.057 155.57 182.536 155.748 183 155.921L183.015 155.902C182.679 155.52 182.339 155.118 182.015 154.697L180.497 152.653L179.067 154.716Z" fill="#282828"/>
<path d="M177.689 164.256C177.45 164.673 177.013 165.275 176.511 165.839C175.796 166.643 175.197 167.037 174.537 167.145C174.007 167.253 173.467 167.118 172.976 166.682C172.377 166.149 172.203 165.283 172.547 164.414L172.528 164.399C171.852 164.858 170.747 165.113 169.824 164.29C169.287 163.815 169.07 163.24 169.047 162.652C169.036 161.864 169.476 160.999 170.38 159.983C170.874 159.43 171.288 159.036 171.562 158.801L177.689 164.256ZM171.446 160.134C171.28 160.265 171.064 160.489 170.809 160.775C170.067 161.605 169.692 162.645 170.596 163.448C171.446 164.205 172.447 163.788 173.227 162.911L173.818 162.247L171.446 160.134ZM174.428 162.788L173.779 163.518C173.022 164.368 173.022 165.26 173.621 165.793C174.351 166.442 175.132 166.145 175.854 165.33C176.182 164.959 176.345 164.723 176.433 164.568L174.428 162.788Z" fill="#282828"/>
<path d="M161.532 174.545C159.647 172.382 159.964 170.091 161.567 168.693C163.224 167.248 165.511 167.518 167.169 169.419C168.907 171.412 168.803 173.8 167.126 175.26C165.411 176.759 163.159 176.411 161.532 174.545ZM166.319 170.195C165.148 168.855 163.375 168.283 162.096 169.396C160.81 170.516 161.115 172.336 162.359 173.761C163.449 175.009 165.237 175.747 166.589 174.569C167.93 173.398 167.52 171.575 166.319 170.195Z" fill="#282828"/>
<path d="M158.001 182.194L155.285 178.076C154.257 176.519 153.129 176.314 152.202 176.924C151.171 177.604 150.958 178.721 151.974 180.258L154.69 184.376L153.782 184.975L151.105 180.919C149.695 178.783 150.244 177.164 151.75 176.167C153.176 175.228 154.787 175.337 156.208 177.492L158.913 181.591L158.001 182.194Z" fill="#282828"/>
<path d="M145.843 188.317L148.114 187.189L148.52 188.008L142.996 190.754L142.59 189.935L144.869 188.799L141.566 182.159L142.54 181.676L145.843 188.317Z" fill="#282828"/>
<path d="M129.259 195.853L127.968 191.094C127.482 189.293 126.473 188.745 125.399 189.034C124.206 189.359 123.657 190.352 124.136 192.129L125.426 196.888L124.376 197.174L123.105 192.484C122.436 190.016 123.46 188.648 125.202 188.177C126.848 187.733 128.343 188.339 129.019 190.831L130.302 195.567L129.259 195.853Z" fill="#282828"/>
<path d="M116.638 191.565C116.121 191.341 115.387 191.194 114.653 191.303C113.563 191.457 113.011 192.125 113.131 192.956C113.243 193.729 113.745 194.103 114.919 194.374C116.333 194.656 117.268 195.235 117.434 196.398C117.62 197.684 116.692 198.789 115.089 199.021C114.243 199.141 113.606 199.033 113.208 198.878L113.378 197.966C113.668 198.075 114.255 198.241 115 198.133C116.125 197.97 116.457 197.236 116.376 196.672C116.264 195.9 115.707 195.594 114.506 195.316C113.034 194.976 112.227 194.408 112.053 193.195C111.871 191.924 112.655 190.684 114.599 190.406C115.394 190.29 116.295 190.399 116.777 190.63L116.638 191.565Z" fill="#282828"/>
<path d="M70.9808 186.599L69.9995 195.14L68.9371 194.738L69.5089 190.446C69.648 189.388 69.8063 188.337 69.9532 187.534L69.93 187.526C69.5089 188.252 68.914 189.086 68.2688 189.99L65.7384 193.525L64.6876 193.127L65.2401 188.816C65.3714 187.808 65.5144 186.803 65.7114 185.938L65.6882 185.93C65.2014 186.726 64.6529 187.506 64.0425 188.387L61.5237 191.926L60.4961 191.536L65.6612 184.582L66.7119 184.98L66.1556 189.411C66.0204 190.497 65.8929 191.323 65.6998 192.146L65.723 192.154C66.1556 191.431 66.6192 190.736 67.2876 189.84L69.9377 186.205L70.9808 186.599Z" fill="#282828"/>
<path d="M53.8525 188.192L55.5484 185.148L52.0291 183.189L50.3332 186.233L49.3828 185.704L53.4353 178.426L54.3856 178.955L52.4849 182.366L56.0043 184.325L57.905 180.914L58.8437 181.435L54.7913 188.713L53.8525 188.192Z" fill="#282828"/>
<path d="M45.7553 176.467L48.0076 174.875L48.9038 175.536L41.672 180.55L40.6289 179.778L43.2984 171.387L44.2217 172.07L43.3795 174.705L45.7553 176.467ZM43.0588 175.52L42.2901 177.935C42.1162 178.483 41.9192 178.955 41.7338 179.414L41.7531 179.43C42.1471 179.105 42.5566 178.781 42.9893 178.468L45.0793 177.015L43.0588 175.52Z" fill="#282828"/>
<path d="M33.7211 172.869L35.5832 174.588L34.9612 175.26L30.4297 171.076L31.0517 170.404L32.9214 172.131L37.9552 166.68L38.7548 167.418L33.7211 172.869Z" fill="#282828"/>
<path d="M21.536 160.915C21.1574 160.548 20.6938 160.046 20.1762 159.351C19.5426 158.497 19.2761 157.724 19.3417 157.06C19.3881 156.457 19.7126 155.878 20.3075 155.437C20.914 154.989 21.5244 154.815 22.1194 154.893C22.9461 154.989 23.7458 155.549 24.3716 156.396C24.5647 156.654 24.7309 156.898 24.8274 157.133L27.5085 155.144L28.1498 156.009L21.536 160.915ZM24.1243 157.659C24.0355 157.435 23.8771 157.18 23.6646 156.894C22.892 155.851 21.9146 155.592 20.9913 156.276C20.1066 156.932 20.1453 157.875 20.8522 158.825C21.1304 159.204 21.3738 159.471 21.5244 159.587L24.1243 157.659Z" fill="#282828"/>
<path d="M16.507 145.396L18.1296 148.201L20.7295 146.698L18.9215 143.573L19.7019 143.121L22.0468 147.177L14.8343 151.35L12.582 147.456L13.3624 147.004L15.0776 149.967L17.3569 148.649L15.7344 145.845L16.507 145.396Z" fill="#282828"/>
<path d="M10.5012 133.28C13.1436 132.163 15.222 133.175 16.0526 135.134C16.9102 137.162 15.9406 139.248 13.6188 140.233C11.1811 141.265 8.94821 140.423 8.07899 138.375C7.19046 136.277 8.22193 134.242 10.5012 133.28ZM13.1436 139.183C14.7855 138.491 15.8787 136.981 15.2181 135.42C14.5537 133.848 12.7303 133.573 10.988 134.307C9.46201 134.952 8.20261 136.424 8.90185 138.074C9.59722 139.716 11.4593 139.897 13.1436 139.183Z" fill="#282828"/>
<path d="M4.74689 128.578C4.52283 128.103 4.26786 127.465 4.03607 126.631C3.75019 125.607 3.77723 124.792 4.0747 124.193C4.33353 123.644 4.84347 123.22 5.55816 123.023C6.28443 122.822 6.91413 122.876 7.44725 123.162C8.18512 123.548 8.72982 124.355 9.01184 125.367C9.09683 125.676 9.16636 125.966 9.17409 126.221L12.3883 125.325L12.678 126.36L4.74689 128.578ZM8.32805 126.461C8.32419 126.217 8.27011 125.924 8.17353 125.58C7.82584 124.328 7.00298 123.737 5.89812 124.046C4.83961 124.344 4.53442 125.236 4.85506 126.38C4.98254 126.832 5.11389 127.168 5.21047 127.334L8.32805 126.461Z" fill="#282828"/>
<path d="M1.91217 117.255L1.74219 116.192L9.07836 115.014L8.51433 111.498L9.40673 111.355L10.1446 115.933L1.91217 117.255Z" fill="#282828"/>
<path d="M4.75528 101.888L4.91753 105.126L7.91922 104.975L7.73765 101.371L8.63777 101.324L8.87342 106.006L0.548283 106.424L0.324219 101.927L1.22434 101.881L1.39432 105.299L4.02514 105.168L3.86289 101.931L4.75528 101.888Z" fill="#282828"/>
<path d="M7.87738 88.8745C8.23665 88.4341 8.57275 87.7697 8.67319 87.0357C8.81999 85.9463 8.32937 85.2316 7.49492 85.1195C6.72229 85.0152 6.22394 85.3977 5.64446 86.4562C4.98386 87.7388 4.17646 88.4805 3.00978 88.3221C1.72334 88.1483 0.908212 86.9545 1.12455 85.3513C1.23658 84.5053 1.51473 83.9181 1.77356 83.5781L2.60415 83.9876C2.42258 84.2387 2.10193 84.7564 2.00149 85.502C1.85083 86.63 2.46507 87.1477 3.02909 87.225C3.80173 87.3293 4.24986 86.8773 4.84092 85.7956C5.5672 84.4705 6.33597 83.8524 7.54901 84.0147C8.82386 84.1846 9.80124 85.2779 9.53854 87.225C9.43038 88.0208 9.08269 88.8591 8.72728 89.2609L7.87738 88.8745Z" fill="#282828"/>
<path d="M8.66729 76.8323L10.9891 78.3273L10.7109 79.4052L3.35156 74.5762L3.67607 73.3207L12.4532 72.6523L12.1673 73.7649L9.40902 73.9697L8.66729 76.8323ZM8.53594 73.9774L6.00943 74.1667C5.43768 74.2092 4.92774 74.2053 4.42939 74.2053L4.42166 74.2285C4.86979 74.4719 5.32564 74.7307 5.77764 75.0127L7.90625 76.4073L8.53594 73.9774Z" fill="#282828"/>
<path d="M14.516 66.7311L11.213 65.4678L5.79297 66.2134L6.22951 65.0699L8.79852 64.7956C9.50162 64.7222 10.0656 64.672 10.6992 64.6372L10.7069 64.6141C10.282 64.2007 9.87634 63.741 9.40117 63.2156L7.68206 61.2724L8.1186 60.1289L11.5916 64.4479L14.9062 65.7151L14.516 66.7311Z" fill="#282828"/>
<path d="M19.8106 49.891L21.5645 52.0196L20.9695 52.9623L15.4336 46.1206L16.1251 45.0234L24.6898 47.0632L24.0755 48.0367L21.3829 47.3916L19.8106 49.891ZM20.5562 47.1289L18.0915 46.5378C17.5313 46.4026 17.0484 46.2442 16.5732 46.0935L16.5616 46.1129C16.9132 46.4799 17.2686 46.8662 17.6124 47.2718L19.2156 49.2497L20.5562 47.1289Z" fill="#282828"/>
<path d="M21.5117 37.5457C21.7319 37.1207 22.1453 36.4988 22.6204 35.9116C23.3004 35.0771 23.8837 34.6599 24.5366 34.5208C25.0581 34.3895 25.6067 34.5015 26.1128 34.9149C26.7347 35.4209 26.9472 36.2786 26.6382 37.1632L26.6575 37.1787C27.3103 36.6919 28.4036 36.3867 29.3617 37.1671C29.918 37.6191 30.1575 38.1831 30.2077 38.7665C30.2541 39.5545 29.8484 40.4353 28.9908 41.49C28.5234 42.0656 28.1255 42.4751 27.8589 42.7223L21.5117 37.5457ZM24.834 38.8669L25.4522 38.1097C26.1707 37.2289 26.1321 36.3365 25.5101 35.8266C24.7529 35.2085 23.988 35.5407 23.3004 36.3829C22.9875 36.7653 22.8368 37.0087 22.7557 37.1671L24.834 38.8669ZM27.9285 41.3934C28.0907 41.2543 28.2955 41.0226 28.5388 40.7251C29.2419 39.8636 29.5742 38.809 28.6354 38.044C27.7546 37.3255 26.7734 37.7852 26.0316 38.6931L25.4676 39.3846L27.9285 41.3934Z" fill="#282828"/>
<path d="M37.2022 26.569C39.1802 28.6474 38.9638 30.9498 37.4224 32.4178C35.8269 33.9322 33.5322 33.7622 31.7938 31.9349C29.9704 30.0188 29.9704 27.6313 31.5813 26.0977C33.2309 24.5292 35.4986 24.7765 37.2022 26.569ZM32.6089 31.1237C33.8374 32.414 35.6338 32.9046 36.8623 31.7379C38.0985 30.5635 37.716 28.7594 36.4141 27.388C35.2745 26.1865 33.4511 25.5298 32.1531 26.766C30.8628 27.9906 31.3495 29.7947 32.6089 31.1237Z" fill="#282828"/>
<path d="M40.4043 18.7716L43.2978 22.7662C44.3911 24.2767 45.5269 24.4351 46.4308 23.7822C47.4314 23.0559 47.5937 21.9317 46.5158 20.4405L43.6223 16.446L44.5031 15.8086L47.3541 19.7452C48.853 21.8197 48.3779 23.4615 46.9176 24.5201C45.5346 25.5206 43.9198 25.482 42.4054 23.392L39.5273 19.4168L40.4043 18.7716Z" fill="#282828"/>
<path d="M52.2867 12.1277L50.0693 13.3523L49.625 12.5526L55.0219 9.56641L55.4661 10.3661L53.2371 11.5984L56.826 18.0886L55.8756 18.614L52.2867 12.1277Z" fill="#282828"/>
<path d="M68.5197 3.86962L70.0147 8.56724C70.5826 10.3443 71.6102 10.8465 72.6688 10.5104C73.847 10.1357 74.3531 9.11967 73.7929 7.36193L72.2979 2.66431L73.3371 2.33594L74.809 6.96402C75.5854 9.40168 74.6197 10.8117 72.9005 11.3603C71.2741 11.878 69.7559 11.3371 68.9717 8.87629L67.4844 4.20185L68.5197 3.86962Z" fill="#282828"/>
<path d="M81.3247 7.60067C81.854 7.80156 82.5918 7.91745 83.322 7.77838C84.4037 7.57363 84.9291 6.88599 84.7707 6.05927C84.6277 5.29436 84.1062 4.93895 82.9202 4.72261C81.4947 4.49854 80.5366 3.96543 80.3203 2.81034C80.0808 1.53549 80.9577 0.388126 82.5493 0.0867984C83.3877 -0.0715917 84.0328 0.00953492 84.4346 0.148609L84.3071 1.06804C84.0135 0.971465 83.4186 0.832391 82.6807 0.971465C81.5642 1.18008 81.2629 1.92953 81.3672 2.48969C81.5102 3.2546 82.0819 3.53661 83.2911 3.76068C84.7784 4.03496 85.609 4.57194 85.833 5.77339C86.0726 7.03665 85.3424 8.30763 83.4108 8.67077C82.6228 8.81757 81.7149 8.7519 81.2243 8.54329L81.3247 7.60067Z" fill="#282828"/>
<circle cx="99.2778" cy="98.5356" r="81.9106" fill="#219653"/>
<path d="M124.76 70.0834L123.802 78.5641C120.428 78.3817 118.058 79.1568 116.69 80.8894C115.322 82.5308 114.501 84.765 114.228 87.5919C114.045 90.3276 114 93.2913 114.091 96.4829H124.76V123.156H104.926V89.6437C104.926 82.4397 106.796 77.0594 110.534 73.503C114.273 69.9466 119.015 68.8067 124.76 70.0834ZM93.7098 70.0834L92.7523 78.5641C89.3782 78.3817 87.0073 79.1568 85.6395 80.8894C84.2716 82.5308 83.4509 84.765 83.1773 87.5919C82.9949 90.3276 82.9493 93.2913 83.0405 96.4829H93.7098V123.156H73.8759V89.6437C73.8759 82.4397 75.7453 77.0594 79.4841 73.503C83.2229 69.9466 87.9648 68.8067 93.7098 70.0834Z" fill="white"/>
<path d="M107.349 196.821C96.9217 197.479 86.4564 196.438 76.3625 193.74L76.9321 191.609C86.7953 194.246 97.0213 195.262 107.211 194.62L107.349 196.821Z" fill="#F19A3E"/>
<path d="M96.4302 3.23803C106.859 2.60469 117.322 3.66968 127.41 6.3914L126.835 8.52109C116.978 5.8616 106.755 4.82096 96.5639 5.43982L96.4302 3.23803Z" fill="#F19A3E"/>
</svg>
