<svg width="193" height="49" viewBox="0 0 193 49" fill="none" xmlns="http://www.w3.org/2000/svg">
<path d="M32.3175 13.5712L32.621 5.68184L13.6562 28.8946V41.4872H32.621L64.33 0.523438L43.2412 0.675155L32.3175 13.5712Z" fill="white"/>
<path d="M10.9237 0.976562L0 14.176V41.5217L33.2262 0.976562H10.9237Z" fill="white"/>
<path d="M45.8203 41.4854H64.3299V3.85938L45.8203 27.7755V41.4854Z" fill="white"/>
<path d="M192.63 9.70402C192.63 10.2324 192.597 10.7828 192.531 11.3552H179.751C179.839 12.5 180.202 13.3807 180.841 13.9971C181.501 14.5915 182.305 14.8887 183.251 14.8887C184.66 14.8887 185.64 14.2943 186.19 13.1055H192.201C191.892 14.3163 191.331 15.4061 190.516 16.3748C189.724 17.3435 188.722 18.103 187.511 18.6534C186.3 19.2038 184.946 19.479 183.449 19.479C181.644 19.479 180.037 19.0937 178.628 18.3232C177.219 17.5526 176.118 16.4519 175.326 15.0208C174.533 13.5898 174.137 11.9166 174.137 10.0012C174.137 8.08586 174.522 6.41266 175.293 4.98163C176.085 3.55061 177.186 2.44982 178.595 1.67927C180.004 0.908714 181.622 0.523438 183.449 0.523438C185.233 0.523438 186.818 0.897707 188.205 1.64624C189.592 2.39478 190.671 3.46255 191.441 4.84954C192.234 6.23653 192.63 7.85469 192.63 9.70402ZM186.851 8.21795C186.851 7.24926 186.521 6.47871 185.86 5.9063C185.2 5.33389 184.374 5.04768 183.383 5.04768C182.437 5.04768 181.633 5.32288 180.973 5.87327C180.334 6.42367 179.938 7.20523 179.784 8.21795H186.851Z" fill="white"/>
<path d="M151.723 9.96821C151.723 8.07485 152.075 6.41266 152.779 4.98163C153.506 3.55061 154.486 2.44982 155.719 1.67927C156.951 0.908714 158.327 0.523438 159.846 0.523438C161.145 0.523438 162.279 0.787628 163.248 1.31601C164.239 1.84439 164.998 2.53788 165.527 3.3965V0.787628H171.174V19.2148H165.527V16.606C164.976 17.4646 164.206 18.1581 163.215 18.6865C162.246 19.2148 161.112 19.479 159.813 19.479C158.316 19.479 156.951 19.0937 155.719 18.3232C154.486 17.5306 153.506 16.4188 152.779 14.9878C152.075 13.5348 151.723 11.8616 151.723 9.96821ZM165.527 10.0012C165.527 8.59222 165.13 7.48042 164.338 6.66584C163.567 5.85126 162.62 5.44396 161.498 5.44396C160.375 5.44396 159.417 5.85126 158.625 6.66584C157.854 7.45841 157.469 8.5592 157.469 9.96821C157.469 11.3772 157.854 12.5 158.625 13.3366C159.417 14.1512 160.375 14.5585 161.498 14.5585C162.62 14.5585 163.567 14.1512 164.338 13.3366C165.13 12.522 165.527 11.4102 165.527 10.0012Z" fill="white"/>
<path d="M144.366 3.85919C145.026 2.84646 145.852 2.05389 146.843 1.48148C147.833 0.887057 148.934 0.589844 150.145 0.589844V6.56713H148.593C147.184 6.56713 146.127 6.87535 145.423 7.49179C144.718 8.08622 144.366 9.14297 144.366 10.6621V19.2152H138.719V0.787985H144.366V3.85919Z" fill="white"/>
<path d="M135.739 9.70402C135.739 10.2324 135.706 10.7828 135.64 11.3552H122.86C122.948 12.5 123.311 13.3807 123.95 13.9971C124.61 14.5915 125.414 14.8887 126.361 14.8887C127.77 14.8887 128.749 14.2943 129.3 13.1055H135.31C135.002 14.3163 134.44 15.4061 133.626 16.3748C132.833 17.3435 131.832 18.103 130.621 18.6534C129.41 19.2038 128.056 19.479 126.559 19.479C124.753 19.479 123.146 19.0937 121.737 18.3232C120.328 17.5526 119.228 16.4519 118.435 15.0208C117.642 13.5898 117.246 11.9166 117.246 10.0012C117.246 8.08586 117.631 6.41266 118.402 4.98163C119.194 3.55061 120.295 2.44982 121.704 1.67927C123.113 0.908714 124.731 0.523438 126.559 0.523438C128.342 0.523438 129.927 0.897707 131.314 1.64624C132.701 2.39478 133.78 3.46255 134.55 4.84954C135.343 6.23653 135.739 7.85469 135.739 9.70402ZM129.96 8.21795C129.96 7.24926 129.63 6.47871 128.969 5.9063C128.309 5.33389 127.483 5.04768 126.493 5.04768C125.546 5.04768 124.742 5.32288 124.082 5.87327C123.444 6.42367 123.047 7.20523 122.893 8.21795H129.96Z" fill="white"/>
<path d="M114.276 0.789062V19.2163H108.629V0.789062H114.276Z" fill="white"/>
<path d="M97.1847 0.589844C99.4744 0.589844 101.291 1.28334 102.634 2.67033C103.999 4.05733 104.681 5.98371 104.681 8.44948V19.2152H99.0671V9.20902C99.0671 8.02017 98.7478 7.10651 98.1094 6.46806C97.4929 5.80758 96.6343 5.47735 95.5335 5.47735C94.4328 5.47735 93.5631 5.80758 92.9247 6.46806C92.3082 7.10651 92 8.02017 92 9.20902V19.2152H86.386V9.20902C86.386 8.02017 86.0668 7.10651 85.4283 6.46806C84.8119 5.80758 83.9532 5.47735 82.8525 5.47735C81.7517 5.47735 80.882 5.80758 80.2436 6.46806C79.6271 7.10651 79.3189 8.02017 79.3189 9.20902V19.2152H73.6719V1.37857H79.3189V3.09964C79.8913 2.32909 80.6399 1.72366 81.5645 1.28334C82.4892 0.82101 83.5349 0.589844 84.7018 0.589844C86.0888 0.589844 87.3217 0.887057 88.4004 1.48148C89.5012 2.07591 90.3598 2.92352 90.9763 4.02431C91.6147 3.01158 92.4844 2.18599 93.5851 1.54753C94.6859 0.909072 95.8858 0.589844 97.1847 0.589844Z" fill="white"/>
<path d="M117.068 41.4924C116.353 41.4924 115.709 41.3658 115.136 41.1126C114.575 40.8484 114.129 40.4961 113.799 40.0558C113.469 39.6045 113.292 39.1036 113.27 38.5532H115.219C115.252 38.9385 115.433 39.2633 115.764 39.5274C116.105 39.7806 116.529 39.9072 117.035 39.9072C117.563 39.9072 117.971 39.8081 118.257 39.61C118.554 39.4009 118.703 39.1367 118.703 38.8174C118.703 38.4762 118.538 38.223 118.207 38.0579C117.888 37.8928 117.376 37.7111 116.672 37.513C115.989 37.3259 115.433 37.1442 115.004 36.9681C114.575 36.792 114.201 36.5223 113.881 36.159C113.573 35.7958 113.419 35.3169 113.419 34.7225C113.419 34.2382 113.562 33.7978 113.848 33.4016C114.134 32.9943 114.542 32.675 115.07 32.4439C115.61 32.2127 116.226 32.0971 116.919 32.0971C117.954 32.0971 118.785 32.3613 119.413 32.8897C120.051 33.4071 120.392 34.1171 120.437 35.0197H118.554C118.521 34.6124 118.356 34.2877 118.059 34.0455C117.762 33.8033 117.36 33.6823 116.853 33.6823C116.358 33.6823 115.978 33.7758 115.714 33.963C115.45 34.1501 115.318 34.3978 115.318 34.706C115.318 34.9482 115.406 35.1518 115.582 35.3169C115.758 35.482 115.973 35.6141 116.226 35.7132C116.479 35.8013 116.853 35.9169 117.349 36.06C118.009 36.2361 118.549 36.4177 118.967 36.6049C119.396 36.781 119.765 37.0452 120.073 37.3974C120.381 37.7497 120.541 38.2175 120.552 38.8009C120.552 39.3183 120.409 39.7806 120.123 40.1879C119.837 40.5952 119.429 40.9144 118.901 41.1456C118.384 41.3768 117.773 41.4924 117.068 41.4924ZM126.532 41.4924C125.674 41.4924 124.898 41.2997 124.204 40.9144C123.511 40.5182 122.966 39.9678 122.57 39.2633C122.173 38.5477 121.975 37.7222 121.975 36.7865C121.975 35.8618 122.179 35.0417 122.586 34.3262C122.993 33.6107 123.549 33.0603 124.254 32.675C124.958 32.2898 125.745 32.0971 126.615 32.0971C127.485 32.0971 128.272 32.2898 128.976 32.675C129.681 33.0603 130.237 33.6107 130.644 34.3262C131.051 35.0417 131.255 35.8618 131.255 36.7865C131.255 37.7111 131.046 38.5312 130.627 39.2467C130.209 39.9623 129.637 40.5182 128.91 40.9144C128.195 41.2997 127.402 41.4924 126.532 41.4924ZM126.532 39.8577C127.017 39.8577 127.468 39.7421 127.886 39.5109C128.316 39.2798 128.662 38.933 128.927 38.4707C129.191 38.0084 129.323 37.447 129.323 36.7865C129.323 36.126 129.196 35.5701 128.943 35.1188C128.69 34.6565 128.354 34.3097 127.936 34.0785C127.518 33.8474 127.066 33.7318 126.582 33.7318C126.098 33.7318 125.646 33.8474 125.228 34.0785C124.821 34.3097 124.496 34.6565 124.254 35.1188C124.012 35.5701 123.89 36.126 123.89 36.7865C123.89 37.7662 124.138 38.5257 124.633 39.0651C125.14 39.5935 125.773 39.8577 126.532 39.8577ZM134.998 29.125V41.3438H133.116V29.125H134.998ZM136.842 36.7535C136.842 35.8398 137.029 35.0307 137.403 34.3262C137.788 33.6217 138.306 33.0768 138.955 32.6915C139.616 32.2953 140.342 32.0971 141.135 32.0971C141.85 32.0971 142.472 32.2402 143.001 32.5264C143.54 32.8016 143.969 33.1484 144.289 33.5667V32.2457H146.187V41.3438H144.289V39.9898C143.969 40.4191 143.535 40.7768 142.984 41.063C142.434 41.3493 141.806 41.4924 141.102 41.4924C140.32 41.4924 139.605 41.2942 138.955 40.8979C138.306 40.4906 137.788 39.9292 137.403 39.2137C137.029 38.4872 136.842 37.6671 136.842 36.7535ZM144.289 36.7865C144.289 36.159 144.157 35.6141 143.892 35.1518C143.639 34.6895 143.303 34.3372 142.885 34.0951C142.467 33.8529 142.015 33.7318 141.531 33.7318C141.047 33.7318 140.595 33.8529 140.177 34.0951C139.759 34.3262 139.418 34.673 139.153 35.1353C138.9 35.5866 138.774 36.126 138.774 36.7535C138.774 37.3809 138.9 37.9313 139.153 38.4046C139.418 38.878 139.759 39.2412 140.177 39.4944C140.606 39.7366 141.058 39.8577 141.531 39.8577C142.015 39.8577 142.467 39.7366 142.885 39.4944C143.303 39.2523 143.639 38.9 143.892 38.4377C144.157 37.9643 144.289 37.4139 144.289 36.7865ZM150.542 33.5667C150.817 33.1043 151.181 32.7466 151.632 32.4934C152.094 32.2292 152.639 32.0971 153.267 32.0971V34.0455H152.788C152.05 34.0455 151.489 34.2327 151.104 34.6069C150.729 34.9812 150.542 35.6307 150.542 36.5553V41.3438H148.66V32.2457H150.542V33.5667Z" fill="white"/>
</svg>
