<svg width="18" height="18" viewBox="0 0 18 18" fill="none" xmlns="http://www.w3.org/2000/svg">
<path d="M17.5316 5.28253C17.4916 4.37652 17.3451 3.75371 17.1352 3.21398C16.9187 2.64109 16.5856 2.1282 16.1493 1.70182C15.7228 1.2688 15.2066 0.932313 14.6403 0.719202C14.0975 0.509356 13.4779 0.362796 12.5719 0.322892C11.6592 0.279524 11.3694 0.269531 9.05443 0.269531C6.73946 0.269531 6.44971 0.279524 5.54034 0.319495C4.63437 0.359465 4.01153 0.506091 3.47195 0.715804C2.89891 0.932313 2.38602 1.2654 1.95963 1.70182C1.52661 2.12817 1.19029 2.64446 0.977014 3.21071C0.767168 3.75371 0.620642 4.37319 0.580705 5.27913C0.53737 6.19189 0.527344 6.48165 0.527344 8.79662C0.527344 11.1116 0.53737 11.4014 0.577307 12.3107C0.617278 13.2167 0.763904 13.8395 0.973783 14.3793C1.19029 14.9521 1.52661 15.465 1.95963 15.8914C2.38602 16.3244 2.9023 16.6609 3.46856 16.874C4.01149 17.0839 4.63097 17.2304 5.53711 17.2703C6.44631 17.3105 6.73623 17.3203 9.0512 17.3203C11.3662 17.3203 11.6559 17.3105 12.5653 17.2703C13.4713 17.2304 14.0941 17.0839 14.6337 16.874C15.2004 16.6549 15.7151 16.3198 16.1447 15.8902C16.5743 15.4606 16.9095 14.946 17.1286 14.3793C17.3383 13.8363 17.485 13.2167 17.5249 12.3107C17.5649 11.4014 17.5749 11.1116 17.5749 8.79662C17.5749 6.48165 17.5715 6.19186 17.5316 5.28253ZM15.9961 12.2441C15.9594 13.0768 15.8195 13.5265 15.703 13.8263C15.4164 14.5691 14.8269 15.1586 14.0841 15.4452C13.7843 15.5617 13.3314 15.7016 12.5019 15.7381C11.6026 15.7782 11.3329 15.7881 9.05783 15.7881C6.7828 15.7881 6.5097 15.7782 5.61359 15.7381C4.78086 15.7016 4.33119 15.5617 4.03141 15.4452C3.66178 15.3085 3.32533 15.092 3.05219 14.8089C2.76907 14.5324 2.55256 14.1993 2.41593 13.8297C2.29935 13.5299 2.15948 13.0768 2.12294 12.2475C2.08284 11.3482 2.07298 11.0783 2.07298 8.80325C2.07298 6.52821 2.08284 6.25511 2.12294 5.35917C2.15948 4.52645 2.29935 4.07678 2.41593 3.777C2.55256 3.4072 2.76907 3.07081 3.05559 2.79761C3.33192 2.51449 3.66501 2.29798 4.03481 2.16151C4.33459 2.04493 4.78766 1.90503 5.61698 1.86836C6.51632 1.82839 6.78619 1.8184 9.06106 1.8184C11.3395 1.8184 11.6092 1.82839 12.5053 1.86836C13.338 1.90507 13.7877 2.0449 14.0875 2.16148C14.4571 2.29798 14.7936 2.51449 15.0667 2.79761C15.3498 3.07411 15.5663 3.4072 15.703 3.777C15.8195 4.07678 15.9594 4.52968 15.9961 5.35917C16.0361 6.25851 16.046 6.52821 16.046 8.80325C16.046 11.0783 16.0361 11.3448 15.9961 12.2441Z" fill="white"/>
<path d="M9.05591 4.41838C6.63775 4.41838 4.67578 6.38021 4.67578 8.79851C4.67578 11.2168 6.63775 13.1786 9.05591 13.1786C11.4741 13.1786 13.436 11.2168 13.436 8.79851C13.436 6.38021 11.4741 4.41838 9.05591 4.41838ZM9.05591 11.6398C7.48712 11.6398 6.21459 10.3674 6.21459 8.79851C6.21459 7.22959 7.48712 5.95725 9.05587 5.95725C10.6248 5.95725 11.8972 7.22959 11.8972 8.79851C11.8972 10.3674 10.6248 11.6398 9.05591 11.6398ZM14.6319 4.24517C14.6319 4.80989 14.174 5.26776 13.6092 5.26776C13.0445 5.26776 12.5866 4.80989 12.5866 4.24517C12.5866 3.68039 13.0445 3.22266 13.6092 3.22266C14.174 3.22266 14.6319 3.68035 14.6319 4.24517Z" fill="white"/>
</svg>
