<svg width="16" height="15" viewBox="0 0 16 15" fill="none" xmlns="http://www.w3.org/2000/svg">
<path d="M15.0683 14.9941V9.71994C15.0683 7.12789 14.5103 5.14784 11.4862 5.14784C10.0282 5.14784 9.05614 5.93986 8.66014 6.69588H8.62413V5.38185H5.76207V14.9941H8.75014V10.224C8.75014 8.96392 8.98414 7.7579 10.5322 7.7579C12.0622 7.7579 12.0802 9.17993 12.0802 10.296V14.976H15.0683V14.9941ZM0.901974 5.38185H3.89004V14.9941H0.901974V5.38185ZM2.396 0.59375C1.44198 0.59375 0.667969 1.36777 0.667969 2.32179C0.667969 3.27581 1.44198 4.06782 2.396 4.06782C3.35002 4.06782 4.12404 3.27581 4.12404 2.32179C4.12404 1.36777 3.35002 0.59375 2.396 0.59375Z" fill="white"/>
</svg>
