<svg width="15" height="20" viewBox="0 0 15 20" fill="none" xmlns="http://www.w3.org/2000/svg">
<path d="M7.33984 0.660156C5.48409 0.662626 3.70504 1.40092 2.39282 2.71314C1.0806 4.02536 0.342313 5.8044 0.339844 7.66016C0.339844 12.6856 6.86151 18.9797 7.13859 19.2452C7.19249 19.2975 7.26469 19.3268 7.33984 19.3268C7.415 19.3268 7.4872 19.2975 7.54109 19.2452C7.81818 18.9797 14.3398 12.6856 14.3398 7.66016C14.3374 5.8044 13.5991 4.02536 12.2869 2.71314C10.9746 1.40092 9.1956 0.662626 7.33984 0.660156ZM7.33984 10.8685C6.7053 10.8685 6.085 10.6803 5.55739 10.3278C5.02978 9.97525 4.61856 9.47418 4.37573 8.88793C4.1329 8.30169 4.06936 7.6566 4.19316 7.03424C4.31695 6.41189 4.62252 5.84022 5.07121 5.39152C5.5199 4.94283 6.09157 4.63726 6.71393 4.51347C7.33628 4.38968 7.98137 4.45321 8.56762 4.69604C9.15387 4.93887 9.65494 5.35009 10.0075 5.8777C10.36 6.40531 10.5482 7.02561 10.5482 7.66016C10.5476 8.51089 10.2094 9.32663 9.60788 9.92819C9.00632 10.5298 8.19058 10.8679 7.33984 10.8685Z" fill="#219653"/>
</svg>
