<svg width="15" height="20" viewBox="0 0 15 20" fill="none" xmlns="http://www.w3.org/2000/svg">
<path d="M7.58203 0.695313C5.72627 0.697782 3.94723 1.43607 2.63501 2.74829C1.32279 4.06051 0.584501 5.83955 0.582031 7.69531C0.582031 12.7207 7.1037 19.0149 7.38078 19.2803C7.43468 19.3327 7.50687 19.362 7.58203 19.362C7.65719 19.362 7.72938 19.3327 7.78328 19.2803C8.06036 19.0149 14.582 12.7207 14.582 7.69531C14.5796 5.83955 13.8413 4.06051 12.5291 2.74829C11.2168 1.43607 9.43779 0.697782 7.58203 0.695313ZM7.58203 10.9036C6.94748 10.9036 6.32718 10.7155 5.79958 10.3629C5.27197 10.0104 4.86075 9.50933 4.61792 8.92309C4.37509 8.33684 4.31155 7.69175 4.43535 7.0694C4.55914 6.44704 4.8647 5.87537 5.3134 5.42668C5.76209 4.97798 6.33376 4.67242 6.95612 4.54863C7.57847 4.42483 8.22356 4.48837 8.80981 4.7312C9.39605 4.97403 9.89713 5.38525 10.2497 5.91286C10.6022 6.44047 10.7904 7.06076 10.7904 7.69531C10.7898 8.54605 10.4516 9.36179 9.85007 9.96335C9.24851 10.5649 8.43277 10.9031 7.58203 10.9036Z" fill="white"/>
</svg>
