<svg width="146" height="37" viewBox="0 0 146 37" fill="none" xmlns="http://www.w3.org/2000/svg">
<path d="M25.0142 10.3848L25.2422 4.4552L10.9883 21.902V31.3666H25.2422L49.0748 0.578125L33.2244 0.692157L25.0142 10.3848Z" fill="#219653"/>
<path d="M8.93683 0.921875L0.726562 10.8426V31.3957L25.6995 0.921875H8.93683Z" fill="#219653"/>
<path d="M35.1641 31.3658H49.0759V3.08594L35.1641 21.0614V31.3658Z" fill="#219653"/>
<path d="M145.505 7.47828C145.505 7.87541 145.48 8.28909 145.431 8.71931H135.825C135.891 9.57977 136.164 10.2417 136.644 10.705C137.14 11.1517 137.744 11.3751 138.456 11.3751C139.515 11.3751 140.251 10.9284 140.665 10.0348H145.182C144.951 10.9449 144.529 11.764 143.917 12.4921C143.321 13.2201 142.568 13.791 141.658 14.2047C140.748 14.6184 139.73 14.8252 138.605 14.8252C137.248 14.8252 136.04 14.5356 134.981 13.9565C133.922 13.3773 133.095 12.55 132.499 11.4744C131.903 10.3989 131.605 9.14127 131.605 7.70167C131.605 6.26207 131.895 5.00448 132.474 3.92892C133.07 2.85336 133.897 2.026 134.956 1.44685C136.015 0.8677 137.231 0.578125 138.605 0.578125C139.945 0.578125 141.137 0.859427 142.179 1.42203C143.222 1.98463 144.032 2.78717 144.612 3.82964C145.207 4.87211 145.505 6.08832 145.505 7.47828ZM141.161 6.36135C141.161 5.63327 140.913 5.05413 140.417 4.6239C139.92 4.19367 139.3 3.97856 138.555 3.97856C137.844 3.97856 137.24 4.1854 136.743 4.59908C136.263 5.01276 135.966 5.60018 135.85 6.36135H141.161Z" fill="#219653"/>
<path d="M114.762 7.67685C114.762 6.25379 115.026 5.00448 115.556 3.92892C116.102 2.85336 116.838 2.026 117.765 1.44685C118.692 0.8677 119.726 0.578125 120.868 0.578125C121.844 0.578125 122.696 0.776691 123.424 1.17382C124.169 1.57095 124.74 2.09219 125.137 2.73753V0.776691H129.381V14.6266H125.137V12.6658C124.723 13.3111 124.144 13.8324 123.399 14.2295C122.671 14.6266 121.819 14.8252 120.843 14.8252C119.718 14.8252 118.692 14.5356 117.765 13.9565C116.838 13.3608 116.102 12.5252 115.556 11.4496C115.026 10.3575 114.762 9.0999 114.762 7.67685ZM125.137 7.70167C125.137 6.64265 124.839 5.80702 124.243 5.19478C123.664 4.58253 122.953 4.27641 122.109 4.27641C121.265 4.27641 120.545 4.58253 119.949 5.19478C119.37 5.79047 119.081 6.61783 119.081 7.67685C119.081 8.73586 119.37 9.57977 119.949 10.2086C120.545 10.8208 121.265 11.1269 122.109 11.1269C122.953 11.1269 123.664 10.8208 124.243 10.2086C124.839 9.59631 125.137 8.76068 125.137 7.70167Z" fill="#219653"/>
<path d="M109.233 3.08615C109.729 2.32499 110.35 1.72929 111.094 1.29907C111.839 0.852293 112.666 0.628906 113.576 0.628906V5.12145H112.41C111.351 5.12145 110.556 5.35311 110.027 5.81643C109.497 6.26321 109.233 7.05747 109.233 8.19922V14.6278H104.988V0.77783H109.233V3.08615Z" fill="#219653"/>
<path d="M102.747 7.47828C102.747 7.87541 102.722 8.28909 102.673 8.71931H93.0672C93.1334 9.57977 93.4064 10.2417 93.8863 10.705C94.3827 11.1517 94.9866 11.3751 95.6982 11.3751C96.7572 11.3751 97.4935 10.9284 97.9072 10.0348H102.425C102.193 10.9449 101.771 11.764 101.159 12.4921C100.563 13.2201 99.8101 13.791 98.9 14.2047C97.9899 14.6184 96.9723 14.8252 95.8471 14.8252C94.4902 14.8252 93.2823 14.5356 92.2233 13.9565C91.1643 13.3773 90.3369 12.55 89.7412 11.4744C89.1455 10.3989 88.8477 9.14127 88.8477 7.70167C88.8477 6.26207 89.1372 5.00448 89.7164 3.92892C90.3121 2.85336 91.1394 2.026 92.1985 1.44685C93.2575 0.8677 94.4737 0.578125 95.8471 0.578125C97.1874 0.578125 98.3788 0.859427 99.4213 1.42203C100.464 1.98463 101.275 2.78717 101.854 3.82964C102.449 4.87211 102.747 6.08832 102.747 7.47828ZM98.4036 6.36135C98.4036 5.63327 98.1554 5.05413 97.659 4.6239C97.1626 4.19367 96.5421 3.97856 95.7975 3.97856C95.0859 3.97856 94.482 4.1854 93.9855 4.59908C93.5057 5.01276 93.2078 5.60018 93.092 6.36135H98.4036Z" fill="#219653"/>
<path d="M86.6154 0.777344V14.6273H82.3711V0.777344H86.6154Z" fill="#219653"/>
<path d="M73.77 0.628906C75.4909 0.628906 76.856 1.15014 77.8654 2.19261C78.8913 3.23508 79.4043 4.68295 79.4043 6.53623V14.6278H75.1848V7.10711C75.1848 6.21356 74.9448 5.52686 74.465 5.04699C74.0017 4.55058 73.3563 4.30237 72.529 4.30237C71.7016 4.30237 71.048 4.55058 70.5681 5.04699C70.1048 5.52686 69.8731 6.21356 69.8731 7.10711V14.6278H65.6536V7.10711C65.6536 6.21356 65.4137 5.52686 64.9338 5.04699C64.4705 4.55058 63.8252 4.30237 62.9978 4.30237C62.1705 4.30237 61.5168 4.55058 61.037 5.04699C60.5737 5.52686 60.342 6.21356 60.342 7.10711V14.6278H56.0977V1.22172H60.342V2.51528C60.7722 1.93613 61.3348 1.48108 62.0298 1.15014C62.7248 0.802651 63.5108 0.628906 64.3878 0.628906C65.4302 0.628906 66.3569 0.852293 67.1677 1.29907C67.995 1.74584 68.6404 2.3829 69.1037 3.21026C69.5836 2.44909 70.2372 1.82857 71.0645 1.34871C71.8919 0.868839 72.7937 0.628906 73.77 0.628906Z" fill="#219653"/>
<path d="M88.7136 31.8422C88.1758 31.8422 87.6918 31.747 87.2616 31.5567C86.8397 31.3582 86.5046 31.0934 86.2564 30.7625C86.0082 30.4232 85.8758 30.0468 85.8592 29.6331H87.3237C87.3485 29.9227 87.485 30.1668 87.7332 30.3653C87.9897 30.5556 88.3082 30.6508 88.6888 30.6508C89.0859 30.6508 89.3921 30.5763 89.6072 30.4274C89.8306 30.2702 89.9423 30.0716 89.9423 29.8317C89.9423 29.5752 89.8181 29.3849 89.5699 29.2608C89.33 29.1367 88.9453 29.0002 88.4158 28.8513C87.9028 28.7106 87.485 28.5741 87.1623 28.4417C86.8397 28.3093 86.5584 28.1066 86.3184 27.8336C86.0868 27.5606 85.9709 27.2007 85.9709 26.7539C85.9709 26.3899 86.0785 26.0589 86.2936 25.7611C86.5087 25.455 86.8148 25.215 87.212 25.0413C87.6174 24.8675 88.0807 24.7807 88.6019 24.7807C89.3797 24.7807 90.0043 24.9792 90.4759 25.3764C90.9558 25.7652 91.2122 26.2989 91.2453 26.9773H89.8306C89.8057 26.6712 89.6816 26.4271 89.4582 26.2451C89.2349 26.0631 88.9329 25.9721 88.5523 25.9721C88.18 25.9721 87.8945 26.0424 87.696 26.183C87.4974 26.3237 87.3981 26.5098 87.3981 26.7415C87.3981 26.9235 87.4643 27.0766 87.5967 27.2007C87.7291 27.3248 87.8904 27.4241 88.0807 27.4985C88.271 27.5647 88.5523 27.6516 88.9246 27.7592C89.421 27.8915 89.8264 28.028 90.1408 28.1687C90.4635 28.3011 90.7407 28.4996 90.9723 28.7644C91.204 29.0291 91.3239 29.3808 91.3322 29.8193C91.3322 30.2081 91.2247 30.5556 91.0095 30.8617C90.7944 31.1679 90.4883 31.4078 90.0912 31.5815C89.7023 31.7553 89.2431 31.8422 88.7136 31.8422ZM95.827 31.8422C95.1817 31.8422 94.5984 31.6974 94.0771 31.4078C93.5559 31.11 93.1464 30.6963 92.8485 30.1668C92.5507 29.629 92.4017 29.0085 92.4017 28.3052C92.4017 27.6102 92.5548 26.9939 92.8609 26.4561C93.167 25.9183 93.5849 25.5046 94.1144 25.215C94.6439 24.9255 95.2354 24.7807 95.889 24.7807C96.5427 24.7807 97.1342 24.9255 97.6637 25.215C98.1932 25.5046 98.611 25.9183 98.9172 26.4561C99.2233 26.9939 99.3763 27.6102 99.3763 28.3052C99.3763 29.0002 99.2192 29.6166 98.9048 30.1544C98.5904 30.6921 98.1601 31.11 97.6141 31.4078C97.0763 31.6974 96.4806 31.8422 95.827 31.8422ZM95.827 30.6135C96.191 30.6135 96.5302 30.5267 96.8446 30.3529C97.1673 30.1792 97.4279 29.9186 97.6265 29.5711C97.8251 29.2236 97.9243 28.8016 97.9243 28.3052C97.9243 27.8088 97.8292 27.391 97.6389 27.0518C97.4486 26.7043 97.1963 26.4437 96.8819 26.2699C96.5675 26.0962 96.2283 26.0093 95.8642 26.0093C95.5002 26.0093 95.161 26.0962 94.8466 26.2699C94.5404 26.4437 94.2964 26.7043 94.1144 27.0518C93.9323 27.391 93.8413 27.8088 93.8413 28.3052C93.8413 29.0416 94.0275 29.6124 94.3998 30.0178C94.7804 30.415 95.2561 30.6135 95.827 30.6135ZM102.19 22.5468V31.7305H100.775V22.5468H102.19ZM103.576 28.2804C103.576 27.5937 103.716 26.9856 103.998 26.4561C104.287 25.9266 104.676 25.517 105.164 25.2274C105.661 24.9296 106.207 24.7807 106.802 24.7807C107.34 24.7807 107.808 24.8882 108.205 25.1033C108.61 25.3102 108.933 25.5708 109.173 25.8852V24.8924H110.6V31.7305H109.173V30.7128C108.933 31.0355 108.606 31.3044 108.192 31.5195C107.779 31.7346 107.307 31.8422 106.777 31.8422C106.19 31.8422 105.652 31.6932 105.164 31.3954C104.676 31.0893 104.287 30.6673 103.998 30.1295C103.716 29.5835 103.576 28.9671 103.576 28.2804ZM109.173 28.3052C109.173 27.8336 109.073 27.4241 108.875 27.0766C108.685 26.7291 108.432 26.4643 108.118 26.2823C107.803 26.1003 107.464 26.0093 107.1 26.0093C106.736 26.0093 106.397 26.1003 106.082 26.2823C105.768 26.4561 105.512 26.7167 105.313 27.0642C105.123 27.4034 105.028 27.8088 105.028 28.2804C105.028 28.752 105.123 29.1657 105.313 29.5214C105.512 29.8772 105.768 30.1502 106.082 30.3405C106.405 30.5225 106.744 30.6135 107.1 30.6135C107.464 30.6135 107.803 30.5225 108.118 30.3405C108.432 30.1585 108.685 29.8937 108.875 29.5462C109.073 29.1905 109.173 28.7768 109.173 28.3052ZM113.873 25.8852C114.08 25.5377 114.353 25.2688 114.692 25.0785C115.039 24.88 115.449 24.7807 115.921 24.7807V26.2451H115.561C115.006 26.2451 114.584 26.3857 114.295 26.667C114.014 26.9483 113.873 27.4365 113.873 28.1315V31.7305H112.458V24.8924H113.873V25.8852Z" fill="#219653"/>
</svg>
