<svg width="21" height="16" viewBox="0 0 21 16" fill="none" xmlns="http://www.w3.org/2000/svg">
<path d="M11.8337 10.2609C11.3404 10.5898 10.7674 10.7636 10.1765 10.7636C9.58575 10.7636 9.0127 10.5898 8.51936 10.2609L0.393748 4.84365C0.348892 4.81366 0.304865 4.78244 0.261719 4.75004L0.261719 13.6268C0.261719 14.6445 1.08763 15.4522 2.08717 15.4522H18.2659C19.2836 15.4522 20.0913 14.6263 20.0913 13.6268V4.75C20.0481 4.78249 20.004 4.81377 19.959 4.8438L11.8337 10.2609Z" fill="white"/>
<path d="M1.03825 3.87779L9.16386 9.29507C9.47146 9.50014 9.82397 9.60266 10.1765 9.60266C10.529 9.60266 10.8816 9.5001 11.1892 9.29507L19.3148 3.87779C19.8011 3.55381 20.0913 3.0116 20.0913 2.42639C20.0913 1.42015 19.2727 0.601562 18.2665 0.601562H2.08655C1.08035 0.601601 0.26172 1.42019 0.26172 2.42736C0.261418 2.71443 0.332169 2.99711 0.467663 3.25019C0.603157 3.50326 0.79918 3.71888 1.03825 3.87779Z" fill="white"/>
</svg>
