<svg width="1349" height="216" viewBox="0 0 1349 216" fill="none" xmlns="http://www.w3.org/2000/svg">
<path d="M1349 104.552C1349 110.541 1348.63 116.78 1347.88 123.268H1203.02C1204.01 136.244 1208.13 146.226 1215.37 153.213C1222.86 159.951 1231.96 163.319 1242.69 163.319C1258.66 163.319 1269.77 156.582 1276.01 143.106H1344.13C1340.64 156.831 1334.28 169.184 1325.04 180.164C1316.06 191.144 1304.71 199.753 1290.98 205.991C1277.26 212.23 1261.91 215.349 1244.94 215.349C1224.48 215.349 1206.26 210.982 1190.29 202.248C1174.32 193.514 1161.84 181.037 1152.86 164.817C1143.87 148.596 1139.38 129.631 1139.38 107.921C1139.38 86.2104 1143.75 67.2451 1152.48 51.0248C1161.47 34.8044 1173.94 22.3273 1189.92 13.5932C1205.89 4.85921 1224.23 0.492188 1244.94 0.492188C1265.15 0.492188 1283.12 4.73444 1298.84 13.2189C1314.56 21.7034 1326.79 33.8063 1335.52 49.5275C1344.51 65.2488 1349 83.5902 1349 104.552ZM1283.49 87.7077C1283.49 76.7278 1279.75 67.9938 1272.26 61.5056C1264.78 55.0175 1255.42 51.7734 1244.19 51.7734C1233.46 51.7734 1224.35 54.8927 1216.87 61.1313C1209.63 67.3699 1205.14 76.2287 1203.39 87.7077H1283.49Z" fill="url(#paint0_linear_1438_320)"/>
<path d="M885.332 107.546C885.332 86.0857 889.325 67.2451 897.31 51.0248C905.545 34.8044 916.65 22.3273 930.624 13.5932C944.599 4.85921 960.195 0.492188 977.414 0.492188C992.137 0.492188 1004.99 3.48672 1015.97 9.47576C1027.2 15.4648 1035.81 23.3255 1041.8 33.0577V3.48672H1105.8V212.355H1041.8V182.784C1035.56 192.516 1026.82 200.377 1015.59 206.366C1004.61 212.355 991.762 215.349 977.039 215.349C960.07 215.349 944.599 210.982 930.624 202.248C916.65 193.265 905.545 180.663 897.31 164.442C889.325 147.973 885.332 129.007 885.332 107.546ZM1041.8 107.921C1041.8 91.95 1037.3 79.348 1028.32 70.1149C1019.59 60.8818 1008.86 56.2652 996.129 56.2652C983.403 56.2652 972.548 60.8818 963.564 70.1149C954.83 79.0985 950.463 91.5756 950.463 107.546C950.463 123.517 954.83 136.244 963.564 145.727C972.548 154.96 983.403 159.576 996.129 159.576C1008.86 159.576 1019.59 154.96 1028.32 145.727C1037.3 136.493 1041.8 123.892 1041.8 107.921Z" fill="url(#paint1_linear_1438_320)"/>
<path d="M801.961 38.3033C809.447 26.8243 818.805 17.8407 830.035 11.3526C841.264 4.61493 853.741 1.24609 867.466 1.24609V68.9972H849.873C833.903 68.9972 821.925 72.4908 813.939 79.478C805.954 86.2157 801.961 98.1938 801.961 115.412V212.36H737.953V3.49198H801.961V38.3033Z" fill="url(#paint2_linear_1438_320)"/>
<path d="M704.187 104.552C704.187 110.541 703.813 116.78 703.064 123.268H558.204C559.202 136.244 563.32 146.226 570.556 153.213C578.043 159.951 587.151 163.319 597.881 163.319C613.852 163.319 624.957 156.582 631.195 143.106H699.321C695.827 156.831 689.464 169.184 680.231 180.164C671.247 191.144 659.893 199.753 646.168 205.991C632.443 212.23 617.096 215.349 600.127 215.349C579.665 215.349 561.448 210.982 545.477 202.248C529.506 193.514 517.029 181.037 508.046 164.817C499.062 148.596 494.57 129.631 494.57 107.921C494.57 86.2104 498.937 67.2451 507.671 51.0248C516.655 34.8044 529.132 22.3273 545.103 13.5932C561.074 4.85921 579.415 0.492188 600.127 0.492188C620.34 0.492188 638.307 4.73444 654.029 13.2189C669.75 21.7034 681.978 33.8063 690.712 49.5275C699.695 65.2488 704.187 83.5902 704.187 104.552ZM638.682 87.7077C638.682 76.7278 634.939 67.9938 627.452 61.5056C619.966 55.0175 610.608 51.7734 599.379 51.7734C588.648 51.7734 579.54 54.8927 572.054 61.1313C564.817 67.3699 560.325 76.2287 558.578 87.7077H638.682Z" fill="url(#paint3_linear_1438_320)"/>
<path d="M460.91 3.48438V212.352H396.902V3.48438H460.91Z" fill="url(#paint4_linear_1438_320)"/>
<path d="M267.169 1.24609C293.121 1.24609 313.709 9.10671 328.931 24.8279C344.403 40.5492 352.139 62.3843 352.139 90.3332V212.36H288.505V98.9424C288.505 85.4671 284.887 75.111 277.65 67.8743C270.663 60.3879 260.93 56.6448 248.453 56.6448C235.976 56.6448 226.119 60.3879 218.882 67.8743C211.895 75.111 208.401 85.4671 208.401 98.9424V212.36H144.768V98.9424C144.768 85.4671 141.149 75.111 133.913 67.8743C126.925 60.3879 117.193 56.6448 104.716 56.6448C92.2388 56.6448 82.3818 60.3879 75.145 67.8743C68.1578 75.111 64.6642 85.4671 64.6642 98.9424V212.36H0.65625V10.1862H64.6642V29.6941C71.1523 20.96 79.6368 14.0976 90.1177 9.10671C100.598 3.8663 112.452 1.24609 125.678 1.24609C141.399 1.24609 155.373 4.61493 167.601 11.3526C180.078 18.0903 189.81 27.6977 196.798 40.1749C204.034 28.6959 213.891 19.338 226.368 12.1012C238.846 4.86447 252.446 1.24609 267.169 1.24609Z" fill="url(#paint5_linear_1438_320)"/>
<defs>
<linearGradient id="paint0_linear_1438_320" x1="1244.19" y1="215.349" x2="1244.19" y2="0.492188" gradientUnits="userSpaceOnUse">
<stop stop-color="white" stop-opacity="0"/>
<stop offset="1" stop-color="white" stop-opacity="0.22"/>
</linearGradient>
<linearGradient id="paint1_linear_1438_320" x1="995.568" y1="215.349" x2="995.568" y2="0.492188" gradientUnits="userSpaceOnUse">
<stop stop-color="white" stop-opacity="0"/>
<stop offset="1" stop-color="white" stop-opacity="0.22"/>
</linearGradient>
<linearGradient id="paint2_linear_1438_320" x1="802.71" y1="212.36" x2="802.71" y2="1.24609" gradientUnits="userSpaceOnUse">
<stop stop-color="white" stop-opacity="0"/>
<stop offset="1" stop-color="white" stop-opacity="0.22"/>
</linearGradient>
<linearGradient id="paint3_linear_1438_320" x1="599.379" y1="215.349" x2="599.379" y2="0.492188" gradientUnits="userSpaceOnUse">
<stop stop-color="white" stop-opacity="0"/>
<stop offset="1" stop-color="white" stop-opacity="0.22"/>
</linearGradient>
<linearGradient id="paint4_linear_1438_320" x1="428.906" y1="212.352" x2="428.906" y2="3.48438" gradientUnits="userSpaceOnUse">
<stop stop-color="white" stop-opacity="0"/>
<stop offset="1" stop-color="white" stop-opacity="0.22"/>
</linearGradient>
<linearGradient id="paint5_linear_1438_320" x1="176.397" y1="212.36" x2="176.397" y2="1.24609" gradientUnits="userSpaceOnUse">
<stop stop-color="white" stop-opacity="0"/>
<stop offset="1" stop-color="white" stop-opacity="0.22"/>
</linearGradient>
</defs>
</svg>
