<svg width="13" height="16" viewBox="0 0 13 16" fill="none" xmlns="http://www.w3.org/2000/svg">
<path d="M9.9593 2.24351V3.93187H12.2031V5.97567H9.82601C9.58905 7.38264 9.00405 8.40455 8.071 9.04139C7.15277 9.67822 5.76062 9.99664 3.89453 9.99664V11.1741C3.89453 11.8701 4.03523 12.4181 4.31662 12.818C4.61282 13.2179 5.10897 13.4178 5.80505 13.4178C6.4715 13.4178 6.95284 13.2327 7.24904 12.8624C7.54524 12.4774 7.69335 11.922 7.69335 11.1963H10.5813C10.5517 12.6921 10.1296 13.8399 9.31506 14.6396C8.5005 15.4246 7.3379 15.817 5.82726 15.817C4.25738 15.817 3.05775 15.395 2.22838 14.5508C1.39901 13.7066 0.984327 12.4774 0.984327 10.863V7.90841C2.56902 7.90841 3.73902 7.87138 4.49434 7.79733C5.24966 7.70847 5.81245 7.53075 6.18271 7.26416C6.55296 6.99758 6.79733 6.56808 6.91581 5.97567H0.273438V3.93187H7.02689V2.24351H0.273438V0.0664062H12.2031V2.24351H9.9593Z" fill="#219653"/>
</svg>
