<svg width="278" height="219" viewBox="0 0 278 219" fill="none" xmlns="http://www.w3.org/2000/svg">
<g clip-path="url(#clip0_1422_307)">
<path d="M219.148 166.971C213.295 166.22 207.405 163.21 204.732 157.949C200.277 149.182 206.123 138.348 203.64 128.832C202.002 122.553 196.794 116.373 199.285 110.381C201.411 105.266 208.338 103.251 209.991 97.9642C211.704 92.4839 206.88 87.3947 204.456 82.1893C200.661 74.04 202.791 64.4977 204.986 55.7802C207.096 47.3936 209.301 38.7983 214.262 31.7149C218.448 25.7373 224.378 21.1675 228.704 15.2912C231.134 11.9909 233.043 8.29683 235.803 5.2682C238.564 2.23957 242.499 -0.127468 246.568 0.360985C251.888 0.999902 255.535 6.24565 256.819 11.4477C258.103 16.6498 257.748 22.1345 258.857 27.3769C261.998 42.2219 276.444 53.6865 276.392 68.86C276.364 76.9901 272.029 84.6626 272.119 92.792C272.187 98.9671 274.794 104.784 276.496 110.72C278.198 116.656 278.884 123.477 275.487 128.634C271.778 134.262 263.605 137.44 263.324 144.175C263.142 148.532 266.607 152.285 266.998 156.628C267.551 162.784 261.498 167.928 255.365 168.698C248.613 169.546 243.413 165.511 237.062 165.274C231.068 165.05 225.419 167.775 219.148 166.971Z" fill="#D9FFE9"/>
<path d="M255.736 83.9902L253.139 82.277L239.447 103.069V48.2031H236.336V144.256L218.784 126.173L216.551 128.343L236.336 148.726V200.795H239.447V108.727L255.736 83.9902Z" fill="#219653"/>
<path d="M135.638 208.035C133.476 204.148 129.359 201.79 125.287 199.997C120.371 197.832 115.206 196.268 109.939 195.211C95.575 198.672 85.332 207.025 85.332 212.76V215.584C85.332 217.308 86.7294 218.705 88.4531 218.705H136.89C137.614 215.098 137.418 211.234 135.638 208.035Z" fill="#5DDE94"/>
<path d="M123.218 193.602C118.538 193.602 114.076 194.214 109.938 195.211C115.204 196.268 120.37 197.831 125.286 199.997C129.357 201.789 133.474 204.148 135.637 208.035C137.417 211.234 137.613 215.098 136.889 218.705H157.985C159.708 218.705 161.106 217.308 161.106 215.584V212.76C161.106 205.373 144.143 193.602 123.218 193.602Z" fill="#219653"/>
<path d="M245.413 72.8242H62.492L9.44531 166.114H192.366L245.413 72.8242Z" fill="#77797B"/>
<path d="M245.413 72.8242L192.366 166.114H9.44531L12.0041 171.169H194.925L247.972 77.8798L245.413 72.8242Z" fill="#4C4E53"/>
<path d="M98.5738 116.816L107.987 100.26L117.401 83.7031H70.0975L51.2695 116.816H98.5738Z" fill="#DDDDDD"/>
<path d="M48.2586 122.117L29.4297 155.23H76.7334L86.1484 138.674L95.5624 122.117H48.2586Z" fill="#DDDDDD"/>
<path d="M123.499 83.7031L104.672 116.816H154.858L164.272 100.26L173.685 83.7031H123.499Z" fill="#DDDDDD"/>
<path d="M179.781 83.7031L160.953 116.816H209.156L227.984 83.7031H179.781Z" fill="#DDDDDD"/>
<path d="M237.097 78.4062H182.797H176.701H126.515H120.419H67.0187L43.8909 119.082L20.3203 160.534H73.7205H79.8169H130.003H136.099H190.401L215.256 116.82L237.097 78.4062ZM133.017 155.233H82.8307L101.66 122.121H151.845L133.017 155.233ZM76.7343 155.233H29.4306L48.2595 122.121H95.5633L86.1488 138.677L76.7343 155.233ZM117.405 83.7065L107.991 100.263L98.5771 116.819H51.2734L70.1008 83.7065H117.405ZM164.274 100.263L154.86 116.82H104.674L123.501 83.707H173.687L164.274 100.263ZM160.956 116.82L179.784 83.707H227.987L209.16 116.82H160.956ZM148.528 138.677L157.942 122.121H206.146L187.318 155.233H139.114L148.528 138.677Z" fill="#FEFEFE"/>
<path d="M206.145 122.117H157.942L148.528 138.674L139.113 155.23H187.318L206.145 122.117Z" fill="#DDDDDD"/>
<path d="M101.661 122.117L82.832 155.23H133.018L151.847 122.117H101.661Z" fill="#DDDDDD"/>
<g opacity="0.63">
<path d="M112.546 83.7065L121.43 78.4062H120.419H96.429L87.5444 83.7065L61.1468 99.4549L51.9206 104.959L43.8906 119.082L39.0859 127.532L57.0413 116.82L112.546 83.7065Z" fill="white"/>
<path d="M201.718 122.119L146.213 155.232L137.328 160.533H162.33H190.4L204.81 135.189L215.256 116.819L217.645 112.617L201.718 122.119Z" fill="white"/>
<path d="M66.931 122.12L75.8156 116.82L110.255 96.2733L119.482 90.7694L131.32 83.7065L140.205 78.4062H131.921L114.508 88.7944L67.5318 116.82L58.6472 122.12L42.9208 131.502L33.6941 137.007L29.4414 144.486L38.6676 138.982L66.931 122.12Z" fill="white"/>
<path d="M109.024 116.82L164.528 83.7065L173.413 78.4062H168.152L159.267 83.7065L105.137 116L94.8778 122.12L39.3733 155.233L30.4883 160.534H35.7496L44.6346 155.233L93.2095 126.254L109.024 116.82Z" fill="white"/>
<path d="M147.543 116.82L158.611 110.217L167.837 104.713L203.047 83.7065L211.932 78.4062H203.648L194.763 83.7065L172.09 97.2332L162.863 102.738L139.259 116.82L130.374 122.12L86.9135 148.048L77.6873 153.552L74.8694 155.233L65.9844 160.534H73.7173H74.2682L83.1533 155.233L138.658 122.12L147.543 116.82Z" fill="white"/>
</g>
<path d="M135.866 171.168H110.578V174.048C119.126 176.965 127.554 180.226 135.866 183.758V171.168Z" fill="#50D589"/>
<path d="M110.578 174.047V198.237C110.578 201.646 116.239 204.41 123.222 204.41C130.205 204.41 135.866 201.646 135.866 198.237V183.757C127.554 180.225 119.126 176.964 110.578 174.047Z" fill="#87F2B4"/>
</g>
<defs>
<clipPath id="clip0_1422_307">
<rect width="277.804" height="218.407" fill="white" transform="translate(0.101562 0.296875)"/>
</clipPath>
</defs>
</svg>
