<svg width="325" height="188" viewBox="0 0 325 188" fill="none" xmlns="http://www.w3.org/2000/svg">
<g clip-path="url(#clip0_1422_187)">
<path d="M68.4767 163.011C64.6421 160.795 51.4527 97.9795 53.8622 93.0014C56.2709 88.0225 78.1131 80.7956 80.3611 77.2628C82.6099 73.7293 78.1131 35.1852 105.575 33.9005C133.038 32.6158 131.753 73.89 134.002 76.1387C136.25 78.3868 163.071 85.7744 164.516 90.1112C165.961 94.4474 166.737 160.455 164.649 162.542C162.561 164.629 72.0902 165.098 68.4767 163.011Z" fill="#77797B"/>
<path d="M53.8622 93.0027C56.0565 90.9529 140.426 91.0881 141.229 93.0027C142.032 94.9173 166.723 163.999 166.723 163.999C166.723 163.999 73.6969 165.099 68.4774 163.012C63.2578 160.924 50.4961 96.1476 53.8622 93.0027Z" fill="#5DDE94"/>
<path d="M78.9767 100.657C78.0866 101.223 80.9041 111.971 81.6497 113.09C82.3959 114.209 109.562 114.333 110.308 113.774C111.054 113.214 108.692 100.657 107.946 100.284C107.2 99.9106 79.6604 100.221 78.9767 100.657Z" fill="#219653"/>
<path d="M192.301 41.5977C192.301 41.5977 114.249 42.8824 107.343 44.0064C100.437 45.1304 99.4734 57.3362 105.737 58.9423C112.001 60.5484 191.658 59.9057 191.658 59.9057L192.301 41.5977Z" fill="#4C4E53"/>
<path d="M109.84 45.2642L167.187 44.2383" stroke="#26264C" stroke-width="0.450154" stroke-miterlimit="10" stroke-linecap="round" stroke-linejoin="round"/>
<path d="M250.957 103.334C250.782 104.788 250.585 106.314 250.366 107.914C250.175 109.339 249.971 110.815 249.759 112.327C249.555 113.758 249.343 115.233 249.116 116.724C247.824 125.46 246.268 134.992 244.821 143.086C244.683 143.824 244.551 144.547 244.427 145.255C242.915 153.487 241.564 159.915 240.796 161.924C240.679 162.238 240.57 162.45 240.483 162.538C240.22 162.801 238.678 163.02 236.18 163.21H236.158C230.343 163.649 219.379 163.889 207.378 164.021H207.371C207.364 164.028 207.364 164.028 207.356 164.021C203.273 164.065 199.081 164.102 194.917 164.123H194.909C174.873 164.225 155.823 164.108 155.823 164.108C154.442 163.473 152.471 157.812 150.403 149.93C150.177 149.053 149.943 148.148 149.709 147.213C148.46 142.18 147.189 136.453 146.028 130.646C145.882 129.93 145.736 129.214 145.597 128.499C142.362 111.976 140.053 95.4384 141.229 92.9987C141.58 92.2827 142.333 91.5156 143.377 90.7197C143.939 90.2887 144.582 89.8578 145.291 89.4195C147.723 87.9001 150.922 86.3149 154.136 84.7808C154.815 84.4595 155.48 84.1381 156.145 83.8242H156.153C157.037 83.408 157.913 82.9986 158.76 82.5972C159.439 82.2685 160.112 81.9472 160.747 81.6406C164.239 79.931 167.007 78.405 167.73 77.2654C168.212 76.5058 168.387 74.132 168.628 70.8594C168.694 69.9538 168.766 68.9824 168.862 67.945V67.9377C169.198 63.8986 169.753 59.0334 171.009 54.2636C171.243 53.3581 171.506 52.4592 171.798 51.5685C174.749 42.5331 180.636 34.4759 192.944 33.8991C193.915 33.8554 194.851 33.8628 195.749 33.9213C196.684 33.9798 197.575 34.0894 198.43 34.2501C206.852 35.8353 211.877 42.1244 214.997 49.3775C215.289 50.0565 215.559 50.7436 215.822 51.43C219.971 62.5037 220.161 74.936 221.366 76.1414C223.616 78.3841 250.438 85.7758 251.884 90.1079C252.25 91.2091 251.834 96.3076 250.957 103.334Z" fill="#219653"/>
<path d="M194.201 42.1549C199.23 40.6644 205.573 57.6965 196.468 58.3176C187.363 58.9402 187.487 44.1448 194.201 42.1549Z" fill="white"/>
<path d="M220.715 82.2812C220.715 82.2812 244.866 90.6739 245.799 92.2591C246.731 93.8443 242.162 126.761 242.162 126.761" stroke="white" stroke-width="0.450154" stroke-miterlimit="10" stroke-linecap="round" stroke-linejoin="round"/>
<path d="M154.137 133.043C154.137 133.043 159.637 156.542 161.75 158.531C163.864 160.52 191.683 161.216 191.683 161.216" stroke="white" stroke-width="0.450154" stroke-miterlimit="10" stroke-linecap="round" stroke-linejoin="round"/>
<path d="M182.38 79.2037C176.7 76.5409 144.121 92.9564 149.708 99.017C160.443 110.661 192.122 83.7705 182.38 79.2037Z" fill="#D9FFE9"/>
<path d="M42.6774 75.0626C42.6774 75.0626 13.5854 42.5703 39.7899 12.6911C65.9938 -17.1881 109.253 17.2216 109.253 17.2216C109.253 17.2216 112.486 24.1668 109.829 28.7383C107.172 33.3097 60.9767 75.2226 57.2166 77.0344C53.4559 78.8475 42.6774 75.0626 42.6774 75.0626Z" fill="#DDDDDD"/>
<path d="M42.6814 75.0636C80.1916 48.0254 109.257 17.2225 109.257 17.2225L97.8865 7.91759C75.4399 28.2276 49.4989 3.76562 49.4989 3.76562C41.7597 7.69708 34.4803 17.7395 34.4803 17.7395C34.4803 17.7395 58.6223 46.3951 34.4648 65.6054L42.6814 75.0636Z" fill="#77797B"/>
<path d="M49.3633 70.1434C74.2219 51.3916 89.9921 36.043 89.9921 36.043" stroke="#26264C" stroke-width="0.450154" stroke-miterlimit="10" stroke-linecap="round" stroke-linejoin="round"/>
<path d="M53.8555 7.23828C53.8555 7.23828 67.4051 17.922 81.1887 15.8024" stroke="#26264C" stroke-width="0.450154" stroke-miterlimit="10" stroke-linecap="round" stroke-linejoin="round"/>
<path d="M43.8971 35.7188C43.8971 35.7188 48.4867 49.2395 40.2695 59.6826" stroke="#26264C" stroke-width="0.450154" stroke-miterlimit="10" stroke-linecap="round" stroke-linejoin="round"/>
<path d="M59.2461 30.1231C48.5092 42.2072 60.5362 56.7277 72.8973 44.5333C85.2584 32.3389 69.9534 18.0726 59.2461 30.1231Z" fill="#DDDDDD"/>
<path d="M72.5261 40.5172C78.11 32.3962 68.2632 24.2771 61.2198 32.2046C60.0836 33.4832 59.3065 34.8002 58.8359 36.0869" stroke="#26264C" stroke-width="0.450154" stroke-miterlimit="10" stroke-linecap="round" stroke-linejoin="round"/>
<path opacity="0.5" d="M57.457 8.68854C59.8113 2.1964 80.6437 5.19473 82.5912 11.344C84.5388 17.4926 53.7346 18.9555 57.457 8.68854Z" fill="white"/>
<path d="M105.632 17.5312L96.1133 26.5942" stroke="#26264C" stroke-width="0.450154" stroke-miterlimit="10" stroke-linecap="round" stroke-linejoin="round"/>
<path d="M48.7057 42.7695C49.2328 45.427 48.896 48.2492 47.7578 50.7084" stroke="#26264C" stroke-width="0.450154" stroke-miterlimit="10" stroke-linecap="round" stroke-linejoin="round"/>
<path d="M278.264 89.0289C286.438 80.6987 295.052 91.359 289.971 97.6878C289.869 97.8182 289.754 97.958 289.629 98.1039C289.39 98.4004 289.113 98.7298 288.8 99.0942C287.242 100.917 284.855 103.589 282.069 106.667C281.816 106.951 281.56 107.233 281.298 107.52C279.813 109.157 278.227 110.89 276.602 112.661C276.343 112.945 276.084 113.229 275.822 113.511C274.559 114.889 273.277 116.279 272.009 117.658C271.735 117.954 271.46 118.251 271.189 118.544C269.787 120.06 268.405 121.554 267.082 122.985C266.817 123.27 266.553 123.555 266.294 123.834C265.265 124.946 264.278 126.008 263.346 127.006C263.079 127.294 262.819 127.572 262.563 127.849C258.729 131.972 256.079 134.803 256.079 134.803L248.828 128.587C248.828 128.587 251.17 125.148 254.598 120.246C254.813 119.935 255.04 119.618 255.269 119.292C256.246 117.898 257.298 116.405 258.399 114.849C258.628 114.529 258.854 114.212 259.084 113.892C262.555 109.016 266.449 103.653 270.003 99.0054C270.236 98.6989 270.471 98.3943 270.702 98.0958C271.891 96.5489 273.039 95.0982 274.11 93.7839C274.364 93.4699 274.613 93.1674 274.861 92.8729C276.141 91.3287 277.294 90.0191 278.264 89.0289Z" fill="#77797B"/>
<path d="M226.575 132.99C227.775 134.443 246.549 151.149 249.795 151.734C253.041 152.32 267.047 149.852 268.133 148.586C269.218 147.319 269.964 145.244 269.846 144.627C269.729 144.01 240.678 116.388 238.123 116.654C235.57 116.92 224.803 130.845 226.575 132.99Z" fill="#DDDDDD"/>
<path d="M227.715 132.416C234.995 126.638 238.551 119.777 238.551 119.777" stroke="#4C4E53" stroke-width="0.450154" stroke-miterlimit="10" stroke-linecap="round" stroke-linejoin="round"/>
<path d="M11.8362 95.7251C11.7243 95.8002 10.4304 94.0721 8.94749 91.8657C7.46463 89.6583 6.35295 87.808 6.46478 87.7328C6.57661 87.6577 7.86965 89.3848 9.35345 91.5922C10.8363 93.7996 11.948 95.6499 11.8362 95.7251Z" fill="#263238"/>
<path d="M13.4638 95.1533C13.3332 95.1872 12.6905 93.1207 12.028 90.5403C11.3655 87.958 10.9351 85.838 11.0666 85.8051C11.1972 85.7713 11.84 87.8368 12.5025 90.4191C13.1641 92.9995 13.5944 95.1195 13.4638 95.1533Z" fill="#263238"/>
<path d="M18.2185 85.7249C18.3473 85.8001 17.2412 87.6936 16.4904 90.2571C15.718 92.8159 15.6099 95.0055 15.4605 94.998C15.3393 95.0083 15.2274 92.753 16.0206 90.1181C16.7958 87.4775 18.1227 85.6497 18.2185 85.7249Z" fill="#263238"/>
<path d="M318.184 39.3462C318.072 39.4213 316.778 37.6932 315.295 35.4867C313.811 33.2794 312.701 31.4291 312.812 31.3539C312.924 31.2787 314.217 33.0059 315.701 35.2133C317.185 37.4207 318.297 39.271 318.184 39.3462Z" fill="#263238"/>
<path d="M319.808 38.7705C319.677 38.8043 319.034 36.7379 318.372 34.1575C317.709 31.5752 317.279 29.4552 317.41 29.4223C317.541 29.3885 318.184 31.4539 318.846 34.0363C319.508 36.6167 319.939 38.7367 319.808 38.7705Z" fill="#263238"/>
<path d="M324.566 29.342C324.695 29.4172 323.588 31.3107 322.838 33.8742C322.065 36.4331 321.957 38.6226 321.808 38.6151C321.687 38.6254 321.575 36.3701 322.368 33.7352C323.144 31.0955 324.471 29.2678 324.566 29.342Z" fill="#263238"/>
<path d="M6.19945 163.409C6.08762 163.484 4.79364 161.756 3.31078 159.549C1.82698 157.342 0.716242 155.492 0.828067 155.416C0.939893 155.341 2.23294 157.068 3.71674 159.276C5.1996 161.483 6.31128 163.333 6.19945 163.409Z" fill="#263238"/>
<path d="M7.8271 162.837C7.69648 162.871 7.05371 160.804 6.39121 158.224C5.72872 155.642 5.29835 153.522 5.42991 153.489C5.56053 153.455 6.20328 155.52 6.86577 158.103C7.52733 160.683 7.95772 162.804 7.8271 162.837Z" fill="#263238"/>
<path d="M12.5809 153.405C12.7096 153.48 11.6036 155.373 10.8528 157.937C10.0803 160.496 9.97224 162.685 9.82377 162.678C9.70255 162.688 9.59073 160.433 10.3838 157.797C11.1582 155.158 12.485 153.33 12.5809 153.405Z" fill="#263238"/>
<path d="M275.102 187.905C274.99 187.98 273.696 186.252 272.213 184.045C270.729 181.838 269.619 179.988 269.73 179.913C269.842 179.837 271.135 181.565 272.619 183.772C274.103 185.979 275.215 187.83 275.102 187.905Z" fill="#263238"/>
<path d="M276.729 187.333C276.599 187.367 275.956 185.3 275.294 182.72C274.631 180.138 274.201 178.018 274.332 177.985C274.463 177.951 275.106 180.016 275.768 182.599C276.43 185.179 276.86 187.299 276.729 187.333Z" fill="#263238"/>
<path d="M281.483 177.901C281.612 177.976 280.506 179.869 279.755 182.433C278.983 184.992 278.875 187.181 278.726 187.174C278.605 187.184 278.493 184.929 279.286 182.293C280.061 179.653 281.387 177.826 281.483 177.901Z" fill="#263238"/>
</g>
<defs>
<clipPath id="clip0_1422_187">
<rect width="323.901" height="187.088" fill="white" transform="translate(0.941406 0.492188)"/>
</clipPath>
</defs>
</svg>
