<svg width="114" height="139" viewBox="0 0 114 139" fill="none" xmlns="http://www.w3.org/2000/svg">
<path d="M104.061 0.680908L90.1074 25.5239H103.735L96.8945 43.068L113.904 18.5119H100.48L104.061 0.680908Z" fill="#E0E0E0"/>
<path d="M86.9872 124.022L82.6523 132.363H86.8858L84.7608 138.253L90.045 130.009H85.8748L86.9872 124.022Z" fill="#E0E0E0"/>
<path d="M5.65368 20.3917L0.714844 29.8945H5.53823L3.11714 36.6053L9.13753 27.2124H4.38635L5.65368 20.3917Z" fill="#E0E0E0"/>
<path d="M82.5387 68.64C83.1112 46.4746 65.8451 28.5024 43.9731 28.4984C22.1011 28.4944 3.90606 46.4596 3.33316 68.6249C2.91884 84.6727 11.8582 98.5168 25.1235 104.941C25.1159 105.235 25.4034 115.066 25.4034 115.066L59.5724 115.073C59.5724 115.073 59.9289 109.39 60.1374 104.318C73.0629 97.6533 82.1371 84.1846 82.5387 68.64Z" fill="#D9FFE9"/>
<path d="M34.3125 133.91C34.3125 133.91 35.7097 134.845 36.5268 135.946C36.9514 136.519 37.6322 136.837 38.3474 136.836L45.3325 136.832C46.1156 136.832 46.8621 136.444 47.3153 135.785C47.8462 135.013 48.7866 134.101 49.7501 133.901L34.3125 133.91Z" fill="#77797B"/>
<path d="M27.2432 114.204C27.2396 114.346 28.5829 125.402 29.0971 129.629C29.308 131.364 30.3266 132.907 31.8843 133.633C32.4529 133.898 33.1122 134.074 33.8611 134.074C36.8549 134.072 49.1393 134.065 49.1393 134.065C49.1393 134.065 53.1322 134.062 54.1175 130.852C55.1551 127.473 57.2917 114.186 57.2917 114.186L27.2432 114.204Z" fill="#4C4E53"/>
<path d="M56.034 128.753L28.2887 128.869C27.8704 128.871 27.5389 128.528 27.548 128.105L27.5496 128.02C27.5587 127.597 27.9053 127.252 28.3235 127.25L56.0693 127.135C56.4872 127.133 56.819 127.475 56.8095 127.899L56.8079 127.983C56.7988 128.407 56.4527 128.751 56.034 128.753Z" fill="#4C4E53"/>
<path d="M56.4813 125.27L28.0172 125.388C27.5989 125.39 27.2674 125.048 27.2766 124.624L27.2785 124.54C27.2877 124.116 27.6342 123.771 28.0521 123.769L56.5166 123.651C56.9349 123.649 57.2664 123.991 57.2568 124.415L57.2553 124.499C57.2461 124.923 56.8996 125.268 56.4813 125.27Z" fill="#4C4E53"/>
<path d="M23.3233 107.782C23.3162 108.069 23.7757 114.841 24.0136 118.316C24.0231 118.458 24.0402 118.599 24.0635 118.737C24.2979 120.111 25.3101 121.228 26.595 121.77L28.2265 122.457L55.3613 122.441L58.44 121.432C59.5323 120.727 60.2534 119.557 60.3938 118.265L61.5345 107.76L23.3233 107.782Z" fill="#4C4E53"/>
<g opacity="0.3">
<path d="M28.792 128.783C31.8429 129.434 34.8993 129.487 38.2666 129.471C40.9852 129.458 43.6491 129.527 46.6021 129.468C48.7652 129.425 50.7575 129.321 52.9156 129.232C54.0082 129.187 55.21 128.927 55.4344 128.72L28.792 128.783Z" fill="#77797B"/>
</g>
<g opacity="0.3">
<path d="M28.876 125.326C31.9269 125.977 34.9833 126.03 38.3506 126.014C41.0692 126.001 43.7331 126.07 46.6857 126.011C48.8488 125.968 50.8415 125.864 52.9999 125.776C54.0922 125.731 55.2939 125.47 55.5183 125.264L28.876 125.326Z" fill="#77797B"/>
</g>
<path d="M59.6353 119.707C59.6337 119.779 51.7307 119.842 41.9862 119.848C32.2384 119.854 24.3402 119.8 24.3418 119.728C24.3434 119.655 32.2448 119.592 41.9929 119.587C51.7375 119.581 59.6372 119.635 59.6353 119.707Z" fill="#77797B"/>
<path d="M61.5481 107.765C61.5492 107.846 52.9715 107.926 42.3915 107.943C31.808 107.961 23.3381 107.863 23.3369 107.782C23.3361 107.701 31.8036 107.666 42.3876 107.649C52.9671 107.632 61.5469 107.684 61.5481 107.765Z" fill="#263238"/>
<path d="M55.7473 122.41C55.7477 122.467 49.5897 122.545 41.9952 122.584C34.3979 122.622 28.2406 122.608 28.2402 122.551C28.2398 122.494 34.3967 122.416 41.994 122.377C49.5885 122.338 55.7469 122.353 55.7473 122.41Z" fill="#77797B"/>
<path d="M42.4136 91.0341C37.3744 82.5349 37.9647 70.4563 42.77 61.823C47.5753 53.1897 56.075 46.9956 65.3576 43.6101C69.4826 55.0108 71.0693 63.1901 66.1308 74.2624C64.2027 78.5852 58.809 83.7013 54.9061 86.3791C51.0032 89.0569 44.9364 90.328 42.4136 91.0341Z" fill="#219653"/>
<path d="M35.9729 94.779C30.4357 95.3837 23.8867 92.4735 20.5761 87.9941C17.2656 83.5148 16.0682 77.7084 16.4952 72.1545C23.3083 72.6957 27.8765 73.7884 32.4078 78.9049C34.1768 80.9024 35.5451 84.8636 36.0093 87.491C36.4736 90.1185 36.1985 93.3196 35.9729 94.779Z" fill="#5DDE94"/>
<path d="M39.2852 102.533C39.2852 102.533 39.7534 99.8651 41.0749 95.6985C41.7187 93.6111 42.6132 91.1672 43.6706 88.4807C44.7375 85.7974 46.0114 82.8892 47.405 79.8637C50.2136 73.819 52.985 68.4607 54.9848 64.5811C55.9863 62.6539 56.7987 61.0902 57.368 59.9947C57.6475 59.4646 57.8672 59.0483 58.0238 58.7518C58.0963 58.6189 58.1538 58.5131 58.199 58.431C58.2395 58.3593 58.2617 58.3232 58.2648 58.3248C58.268 58.3263 58.2522 58.3656 58.2177 58.4405C58.1776 58.525 58.1257 58.634 58.0606 58.7708C57.9124 59.0717 57.7046 59.494 57.4398 60.0316C56.8843 61.1342 56.0918 62.7082 55.1148 64.6481C53.1487 68.5443 50.3984 73.9118 47.5925 79.9509C46.2001 82.9736 44.9223 85.8759 43.847 88.5517C42.7817 91.2307 41.8745 93.665 41.2136 95.7433C41.0451 96.2615 40.8849 96.7551 40.7327 97.2226C40.5967 97.694 40.4686 98.1388 40.3481 98.5555C40.1059 99.3873 39.8965 100.104 39.7613 100.698C39.615 101.28 39.5 101.736 39.4184 102.061C39.3795 102.207 39.3482 102.324 39.324 102.414C39.3018 102.494 39.2887 102.534 39.2852 102.533Z" fill="#4C4E53"/>
<path d="M58.6629 72.3899C58.6713 72.424 58.0353 72.5853 57.035 72.9263C56.0347 73.2661 54.6775 73.8112 53.2625 74.5816C51.8487 75.3555 50.6561 76.2028 49.8294 76.8601C49.0016 77.5171 48.5219 77.9647 48.4977 77.9393C48.4878 77.929 48.5988 77.8077 48.8081 77.5968C49.0155 77.3839 49.3323 77.0921 49.7371 76.7471C50.5451 76.0561 51.7365 75.1814 53.1638 74.4C54.5923 73.6221 55.972 73.0932 56.9902 72.7867C57.4993 72.6329 57.916 72.5243 58.2074 72.4648C58.4976 72.4037 58.6598 72.376 58.6629 72.3899Z" fill="#4C4E53"/>
<path d="M35.7227 40.2733C35.7132 38.57 36.861 36.8116 38.506 35.4002C40.8587 33.3813 45.0252 32.5349 48.3996 32.7831C57.0111 33.4158 61.6689 35.2844 68.5148 42.7556C70.6479 45.0833 72.3936 49.9988 72.1707 53.3633C72.0585 55.0547 71.3461 56.6901 70.046 57.7876C66.6649 60.6414 62.04 58.2717 59.3499 55.2303C56.843 52.3951 54.8662 48.8086 51.4132 47.277C48.5685 46.015 45.2679 46.4123 42.1801 45.9381C39.0924 45.4635 35.7402 43.4486 35.7227 40.2733Z" fill="white"/>
<path d="M67.0131 66.4331C67.9365 63.8084 71.1341 62.1377 73.2568 62.6238C75.0049 63.0793 76.5278 64.3595 77.1927 66.0541C77.9939 68.0963 77.4278 70.6607 75.7867 72.1713C74.1457 73.6823 71.5294 73.9899 69.6897 72.8362C67.8509 71.6828 66.2721 68.5392 67.0131 66.4331Z" fill="white"/>
<path d="M39.9388 99.7934C39.9332 99.7978 39.871 99.7236 39.758 99.5785C39.6343 99.4156 39.4725 99.2031 39.2715 98.9382C38.854 98.3784 38.2609 97.5601 37.5373 96.5427C36.0846 94.512 34.126 91.6728 31.8376 88.6314C29.5602 85.5798 27.3404 82.94 25.6545 81.1024C24.8061 80.1889 24.1126 79.455 23.6143 78.967C23.3815 78.7299 23.1944 78.5396 23.0513 78.3937C22.924 78.2608 22.8594 78.1887 22.8645 78.1835C22.8693 78.1784 22.9434 78.2406 23.0798 78.3635C23.2301 78.5023 23.4263 78.6839 23.6706 78.9095C24.1868 79.3805 24.8977 80.1001 25.7616 81.0029C27.4783 82.8187 29.722 85.4509 32.0025 88.507C34.2945 91.5535 36.2353 94.4069 37.6566 96.4587C38.3556 97.4709 38.9262 98.2971 39.3365 98.8911C39.5248 99.165 39.6759 99.3855 39.7917 99.554C39.8936 99.707 39.9447 99.7895 39.9388 99.7934Z" fill="#4C4E53"/>
<path d="M110.981 119.51C110.334 117.782 109.674 116.031 108.585 114.541C107.497 113.052 105.907 111.831 104.075 111.607C102.244 111.383 100.215 112.371 99.6184 114.117C99.3557 110.183 98.7981 106.147 96.8288 102.731C94.8595 99.3156 91.1854 96.6324 87.2499 96.8733C83.5392 97.1005 80.3624 99.8565 78.5973 103.128C76.8321 106.4 76.2259 110.152 75.6464 113.825C74.2398 112.099 71.2697 112.641 69.8021 114.315C68.3344 115.989 67.9622 118.329 67.6504 120.533H111.903L110.981 119.51Z" fill="#F5F5F5"/>
</svg>
