<svg width="138" height="138" viewBox="0 0 138 138" fill="none" xmlns="http://www.w3.org/2000/svg">
<path d="M107.981 84.8252C105.004 84.4436 102.007 82.9116 100.646 80.2352C98.3796 75.7743 101.354 70.2616 100.091 65.4199C99.2572 62.2253 96.6072 59.0806 97.8747 56.0318C98.9566 53.4291 102.481 52.404 103.322 49.7141C104.194 46.9257 101.739 44.3363 100.506 41.6877C98.5752 37.5412 99.6589 32.686 100.775 28.2505C101.849 23.9833 102.971 19.6099 105.495 16.0058C107.625 12.9644 110.643 10.6392 112.844 7.64926C114.08 5.97007 115.051 4.09048 116.456 2.54948C117.861 1.00848 119.863 -0.19589 121.933 0.0526395C124.64 0.377727 126.495 3.04682 127.149 5.69367C127.802 8.34053 127.621 11.1312 128.186 13.7986C129.784 21.3519 137.134 27.1852 137.108 34.9056C137.094 39.0423 134.888 42.9461 134.934 47.0825C134.968 50.2244 136.295 53.184 137.161 56.2043C138.027 59.2247 138.376 62.6954 136.647 65.3191C134.76 68.183 130.602 69.8 130.459 73.2265C130.366 75.4436 132.129 77.353 132.328 79.563C132.609 82.6951 129.53 85.3121 126.409 85.7042C122.973 86.1357 120.328 84.0824 117.096 83.962C114.047 83.848 111.172 85.2345 107.981 84.8252Z" fill="#D9FFE9"/>
<path d="M126.598 42.6054L125.277 41.7337L118.31 52.3127V24.3966H116.727V73.2694L107.796 64.0685L106.66 65.1724L116.727 75.5436V102.037H118.31V55.1915L126.598 42.6054Z" fill="#219653"/>
<path d="M7.42519 92.2092C5.48995 91.9611 3.54227 90.9655 2.65842 89.2262C1.18522 86.3271 3.11845 82.7446 2.29735 79.5981C1.75555 77.522 0.0333985 75.4783 0.857066 73.4969C1.56019 71.8055 3.85084 71.1393 4.39739 69.3912C4.96388 67.5791 3.36868 65.8962 2.56714 64.175C1.31234 61.4803 2.01657 58.325 2.7422 55.4425C3.4402 52.6693 4.16912 49.8271 5.8095 47.4849C7.19362 45.5083 9.15465 43.9973 10.585 42.0542C11.3884 40.9629 12.0197 39.7414 12.9326 38.7399C13.8455 37.7384 15.1466 36.9558 16.4921 37.1173C18.2512 37.3285 19.457 39.0631 19.8815 40.7833C20.3063 42.5034 20.1888 44.317 20.5556 46.0505C21.5942 50.9592 26.371 54.7501 26.3538 59.7675C26.3447 62.4558 24.9112 64.9928 24.941 67.6809C24.9635 69.7228 25.8254 71.6462 26.3882 73.609C26.951 75.5719 27.1779 77.8274 26.0544 79.5326C24.8281 81.3937 22.1257 82.4446 22.0326 84.6714C21.9725 86.1122 23.1182 87.3531 23.2474 88.7894C23.4305 90.8248 21.429 92.5256 19.401 92.7804C17.1682 93.0608 15.4488 91.7264 13.3489 91.6482C11.3668 91.5741 9.4989 92.4751 7.42519 92.2092Z" fill="#D9FFE9"/>
<path d="M19.5236 64.7714L18.6648 64.2049L14.1373 71.08V52.9379H13.1086V84.6993L7.30484 78.7198L6.56641 79.4372L13.1086 86.1772V103.395H14.1373V72.9508L19.5236 64.7714Z" fill="#219653"/>
<path d="M68.025 131.948C66.9246 129.97 64.8299 128.77 62.7582 127.858C60.2569 126.757 57.6287 125.961 54.9489 125.423C47.6404 127.184 42.4287 131.434 42.4287 134.352V135.789C42.4287 136.666 43.1397 137.377 44.0167 137.377H68.6619C69.0305 135.542 68.9305 133.576 68.025 131.948Z" fill="#5DDE94"/>
<path d="M61.7047 124.604C59.3235 124.604 57.0529 124.916 54.9473 125.423C57.6271 125.961 60.2553 126.756 62.7566 127.858C64.828 128.77 66.9227 129.97 68.0234 131.948C68.9289 133.576 69.0289 135.542 68.6603 137.377H79.3941C80.2711 137.377 80.9821 136.666 80.9821 135.789V134.352C80.9821 130.594 72.3513 124.604 61.7047 124.604Z" fill="#219653"/>
<path d="M123.877 63.1526H30.8051L3.81445 110.619H96.8862L123.877 63.1526Z" fill="#77797B"/>
<path d="M123.877 63.1526L96.8862 110.619H3.81445L5.11641 113.192H98.1884L125.179 65.7249L123.877 63.1526Z" fill="#4C4E53"/>
<path d="M49.1655 85.5378L53.9552 77.1138L58.7451 68.6895H34.6765L25.0967 85.5378H49.1655Z" fill="#DDDDDD"/>
<path d="M23.5638 88.2346L13.9834 105.083H38.052L42.8424 96.6589L47.6324 88.2346H23.5638Z" fill="#DDDDDD"/>
<path d="M61.8472 68.6895L52.2676 85.5378H77.8026L82.5925 77.1138L87.3821 68.6895H61.8472Z" fill="#DDDDDD"/>
<path d="M90.4839 68.6895L80.9043 85.5378H105.43L115.01 68.6895H90.4839Z" fill="#DDDDDD"/>
<path d="M119.647 65.9927H92.0186H88.9167H63.3817H60.2798H33.1092L21.3416 86.6889L9.34863 107.78H36.5192H39.6211H65.1561H68.258H95.8871L108.534 85.5379L119.647 65.9927ZM66.6898 105.083H41.1545L50.7349 88.2349H76.2699L66.6898 105.083ZM38.0526 105.083H13.984L23.5644 88.2349H47.633L42.8428 96.659L38.0526 105.083ZM58.7463 68.6895L53.9564 77.1135L49.1665 85.5376H25.0979L34.6774 68.6895H58.7463ZM82.5935 77.1138L77.8036 85.5379H52.2686L61.8482 68.6898H87.3832L82.5935 77.1138ZM80.9055 85.5379L90.4851 68.6898H115.012L105.432 85.5379H80.9055ZM74.5819 96.659L79.3721 88.2349H103.899L94.3189 105.083H69.792L74.5819 96.659Z" fill="#FEFEFE"/>
<path d="M103.898 88.2346H79.3714L74.5812 96.6589L69.791 105.083H94.318L103.898 88.2346Z" fill="#DDDDDD"/>
<path d="M50.7347 88.2346L41.1543 105.083H66.6895L76.2699 88.2346H50.7347Z" fill="#DDDDDD"/>
<g opacity="0.63">
<path d="M56.2735 68.6895L60.7941 65.9927H60.2794H48.0732L43.5526 68.6895L30.1212 76.7024L25.4269 79.5029L21.3412 86.6887L18.8965 90.9881L28.0323 85.5379L56.2735 68.6895Z" fill="white"/>
<path d="M101.645 88.2347L73.4036 105.083L68.8828 107.78H81.604H95.8865L103.218 94.8851L108.533 85.5379L109.749 83.4001L101.645 88.2347Z" fill="white"/>
<path d="M33.0663 88.2347L37.5869 85.5379L55.1102 75.0836L59.8046 72.2832L65.8281 68.6895L70.3489 65.9927H66.134L57.274 71.2783L33.372 85.5379L28.8514 88.2347L20.8497 93.0084L16.155 95.8091L13.9912 99.6145L18.6856 96.814L33.0663 88.2347Z" fill="white"/>
<path d="M54.482 85.5379L82.7232 68.6895L87.244 65.9927H84.567L80.0465 68.6895L52.5043 85.1208L47.2845 88.2347L19.0433 105.083L14.5225 107.78H17.1995L21.7203 105.083L46.4357 90.3382L54.482 85.5379Z" fill="white"/>
<path d="M74.0817 85.5379L79.7134 82.1781L84.4075 79.3776L102.323 68.6895L106.843 65.9927H102.629L98.1078 68.6895L86.5713 75.572L81.877 78.3727L69.8668 85.5379L65.346 88.2347L43.2329 101.427L38.5386 104.228L37.1048 105.083L32.584 107.78H36.5185H36.7989L41.3197 105.083L69.5609 88.2347L74.0817 85.5379Z" fill="white"/>
</g>
<path d="M68.1383 113.192H55.2715V114.657C59.6208 116.141 63.9088 117.8 68.1383 119.598V113.192Z" fill="#50D589"/>
<path d="M55.2715 114.657V126.965C55.2715 128.7 58.1515 130.106 61.7048 130.106C65.2577 130.106 68.138 128.7 68.138 126.965V119.598C63.9088 117.8 59.6208 116.141 55.2715 114.657Z" fill="#87F2B4"/>
</svg>
