<svg width="340" height="194" viewBox="0 0 340 194" fill="none" xmlns="http://www.w3.org/2000/svg">
<g clip-path="url(#clip0_1422_338)">
<path d="M261.607 0.65625L251.363 20.3663H261.368L256.346 34.2855L268.833 14.8031H258.978L261.607 0.65625Z" fill="#E0E0E0"/>
<path d="M245.855 169.613L238.605 183.561H245.685L242.131 193.411L250.968 179.624H243.994L245.855 169.613Z" fill="#E0E0E0"/>
<path d="M69.6654 79.6641L61.4062 95.5555H69.4724L65.4236 106.778L75.4915 91.0702H67.5461L69.6654 79.6641Z" fill="#E0E0E0"/>
<path d="M238.412 76.9958C239.369 39.9287 210.495 9.87382 173.919 9.86719C137.342 9.86056 106.915 39.9035 105.957 76.9706C105.264 103.807 120.213 126.959 142.397 137.702C142.384 138.194 142.865 154.634 142.865 154.634L200.005 154.645C200.005 154.645 200.601 145.142 200.95 136.66C222.565 125.515 237.74 102.991 238.412 76.9958Z" fill="#D9FFE9"/>
<path d="M157.766 186.148C157.766 186.148 160.102 187.711 161.469 189.553C162.179 190.511 163.317 191.042 164.513 191.041L176.194 191.035C177.504 191.034 178.752 190.385 179.51 189.283C180.398 187.992 181.971 186.467 183.582 186.133L157.766 186.148Z" fill="#77797B"/>
<path d="M145.941 153.194C145.935 153.432 148.182 171.92 149.042 178.99C149.394 181.892 151.098 184.471 153.703 185.685C154.654 186.129 155.756 186.423 157.009 186.423C162.015 186.419 182.558 186.407 182.558 186.407C182.558 186.407 189.236 186.403 190.883 181.035C192.618 175.384 196.191 153.164 196.191 153.164L145.941 153.194Z" fill="#4C4E53"/>
<path d="M194.09 177.522L147.692 177.716C146.992 177.719 146.438 177.147 146.453 176.438L146.456 176.298C146.471 175.589 147.051 175.013 147.75 175.009L194.149 174.816C194.848 174.814 195.403 175.386 195.387 176.095L195.385 176.235C195.369 176.943 194.791 177.52 194.09 177.522Z" fill="#4C4E53"/>
<path d="M194.835 171.699L147.235 171.896C146.535 171.9 145.981 171.327 145.996 170.619L146 170.478C146.015 169.77 146.594 169.192 147.293 169.19L194.894 168.992C195.594 168.989 196.148 169.561 196.132 170.269L196.13 170.41C196.114 171.119 195.535 171.696 194.835 171.699Z" fill="#4C4E53"/>
<path d="M139.387 142.455C139.375 142.934 140.143 154.26 140.541 160.072C140.557 160.309 140.586 160.544 140.625 160.774C141.017 163.073 142.709 164.941 144.858 165.847L147.586 166.996L192.964 166.97L198.112 165.282C199.939 164.103 201.145 162.147 201.38 159.986L203.287 142.418L139.387 142.455Z" fill="#4C4E53"/>
<g opacity="0.3">
<path d="M148.531 177.574C153.633 178.663 158.744 178.752 164.376 178.725C168.922 178.703 173.377 178.818 178.315 178.719C181.932 178.647 185.264 178.474 188.873 178.325C190.7 178.25 192.71 177.814 193.085 177.469L148.531 177.574Z" fill="#77797B"/>
</g>
<g opacity="0.3">
<path d="M148.676 171.792C153.778 172.881 158.889 172.969 164.52 172.943C169.066 172.921 173.521 173.036 178.459 172.937C182.076 172.865 185.409 172.692 189.018 172.543C190.845 172.469 192.854 172.033 193.23 171.688L148.676 171.792Z" fill="#77797B"/>
</g>
<path d="M200.111 162.397C200.108 162.518 186.892 162.623 170.596 162.633C154.295 162.642 141.087 162.553 141.09 162.431C141.092 162.311 154.306 162.205 170.608 162.196C186.904 162.186 200.114 162.276 200.111 162.397Z" fill="#77797B"/>
<path d="M203.31 142.426C203.312 142.562 188.968 142.695 171.275 142.724C153.576 142.753 139.412 142.59 139.41 142.454C139.409 142.318 153.569 142.26 171.268 142.232C188.961 142.203 203.308 142.29 203.31 142.426Z" fill="#263238"/>
<path d="M193.609 166.916C193.61 167.011 183.312 167.141 170.612 167.206C157.907 167.271 147.61 167.246 147.609 167.151C147.609 167.055 157.905 166.926 170.61 166.861C183.31 166.796 193.609 166.82 193.609 166.916Z" fill="#77797B"/>
<path d="M171.312 114.448C162.885 100.234 163.872 80.0353 171.908 65.598C179.944 51.1606 194.158 40.8022 209.681 35.1406C216.579 54.2059 219.232 67.8841 210.974 86.4004C207.75 93.6293 198.73 102.185 192.203 106.663C185.676 111.141 175.531 113.267 171.312 114.448Z" fill="#219653"/>
<path d="M160.543 120.71C151.284 121.721 140.332 116.854 134.796 109.363C129.259 101.873 127.257 92.1626 127.971 82.875C139.364 83.78 147.004 85.6073 154.582 94.1637C157.54 97.504 159.828 104.128 160.604 108.522C161.381 112.916 160.921 118.269 160.543 120.71Z" fill="#5DDE94"/>
<path d="M166.082 133.676C166.082 133.676 166.865 129.214 169.075 122.246C170.152 118.755 171.647 114.668 173.416 110.176C175.2 105.688 177.33 100.825 179.661 95.7657C184.358 85.6572 188.992 76.6964 192.336 70.2087C194.011 66.9857 195.37 64.3708 196.322 62.5388C196.789 61.6524 197.157 60.9562 197.419 60.4603C197.54 60.2381 197.636 60.0611 197.712 59.9239C197.779 59.8039 197.816 59.7435 197.822 59.7462C197.827 59.7488 197.8 59.8145 197.743 59.9398C197.676 60.081 197.589 60.2633 197.48 60.4921C197.232 60.9953 196.885 61.7014 196.442 62.6005C195.513 64.4444 194.188 67.0766 192.554 70.3208C189.266 76.8363 184.667 85.8123 179.974 95.9115C177.646 100.966 175.509 105.82 173.711 110.295C171.929 114.775 170.412 118.846 169.307 122.321C169.025 123.188 168.757 124.013 168.503 124.795C168.275 125.583 168.061 126.327 167.86 127.024C167.454 128.415 167.104 129.613 166.878 130.608C166.634 131.58 166.441 132.343 166.305 132.886C166.24 133.13 166.187 133.325 166.147 133.477C166.11 133.61 166.088 133.677 166.082 133.676Z" fill="#4C4E53"/>
<path d="M198.485 83.2676C198.499 83.3246 197.435 83.5945 195.762 84.1647C194.089 84.7329 191.82 85.6445 189.454 86.9328C187.089 88.227 185.095 89.6439 183.713 90.7432C182.328 91.8418 181.526 92.5904 181.485 92.5479C181.469 92.5307 181.654 92.3278 182.005 91.9751C182.351 91.619 182.881 91.1311 183.558 90.5542C184.909 89.3986 186.902 87.9359 189.289 86.6291C191.677 85.3283 193.985 84.4438 195.687 83.9313C196.539 83.674 197.236 83.4923 197.723 83.3929C198.208 83.2908 198.479 83.2444 198.485 83.2676Z" fill="#4C4E53"/>
<path d="M160.125 29.5611C160.109 26.7127 162.029 23.7722 164.78 21.4119C168.714 18.0357 175.682 16.6202 181.325 17.0352C195.726 18.0934 203.515 21.2183 214.963 33.7123C218.53 37.6049 221.45 45.8251 221.077 51.4515C220.889 54.28 219.698 57.015 217.524 58.8502C211.87 63.6227 204.135 59.6598 199.637 54.5737C195.444 49.8324 192.139 43.8347 186.364 41.2734C181.607 39.163 176.087 39.8274 170.924 39.0344C165.76 38.2408 160.154 34.8713 160.125 29.5611Z" fill="white"/>
<path d="M212.449 73.3076C213.994 68.9184 219.341 66.1244 222.891 66.9373C225.814 67.6991 228.361 69.84 229.473 72.6738C230.813 76.089 229.866 80.3775 227.121 82.9036C224.377 85.4304 220.002 85.9449 216.925 84.0155C213.85 82.0868 211.21 76.8296 212.449 73.3076Z" fill="white"/>
<path d="M167.171 129.096C167.162 129.103 167.057 128.979 166.868 128.736C166.662 128.464 166.391 128.108 166.055 127.666C165.357 126.729 164.365 125.361 163.155 123.66C160.726 120.264 157.45 115.516 153.623 110.43C149.815 105.326 146.103 100.912 143.283 97.8387C141.864 96.3111 140.705 95.0838 139.871 94.2677C139.482 93.8712 139.169 93.5529 138.93 93.3089C138.717 93.0868 138.609 92.9661 138.618 92.9575C138.626 92.9489 138.75 93.053 138.978 93.2585C139.229 93.4906 139.557 93.7943 139.966 94.1715C140.829 94.9592 142.018 96.1626 143.462 97.6723C146.333 100.709 150.085 105.111 153.899 110.221C157.732 115.316 160.977 120.088 163.354 123.519C164.523 125.212 165.477 126.593 166.164 127.587C166.479 128.045 166.731 128.413 166.925 128.695C167.095 128.951 167.181 129.089 167.171 129.096Z" fill="#4C4E53"/>
<path d="M338.262 148.154C337.18 145.265 336.077 142.336 334.256 139.844C332.436 137.353 329.776 135.312 326.714 134.938C323.652 134.563 320.259 136.216 319.261 139.135C318.822 132.557 317.889 125.807 314.596 120.095C311.302 114.383 305.158 109.896 298.577 110.299C292.372 110.678 287.059 115.287 284.107 120.758C281.155 126.23 280.142 132.505 279.173 138.646C276.82 135.76 271.853 136.666 269.399 139.466C266.945 142.266 266.322 146.179 265.801 149.865H339.805L338.262 148.154Z" fill="#F5F5F5"/>
<path d="M67.6336 33.9475C66.6298 31.6596 65.6062 29.3403 63.9174 27.3681C62.2295 25.3958 59.7619 23.7796 56.921 23.4829C54.0801 23.1862 50.9325 24.495 50.0078 26.8068C49.5998 21.5972 48.7353 16.2533 45.6809 11.7302C42.6265 7.2071 36.9265 3.65408 30.8218 3.97304C25.0658 4.27386 20.138 7.92331 17.3993 12.2552C14.6606 16.587 13.721 21.5568 12.8218 26.4195C10.6402 24.134 6.03308 24.8519 3.75588 27.0689C1.47868 29.286 0.90176 32.384 0.417969 35.3033H69.066L67.6336 33.9475Z" fill="#F5F5F5"/>
</g>
<defs>
<clipPath id="clip0_1422_338">
<rect width="339.389" height="192.754" fill="white" transform="translate(0.417969 0.65625)"/>
</clipPath>
</defs>
</svg>
