<svg width="129" height="90" viewBox="0 0 129 90" fill="none" xmlns="http://www.w3.org/2000/svg">
<path d="M30.2147 72.2164C28.5233 71.239 22.7056 43.5319 23.7684 41.3361C24.8309 39.14 34.4652 35.9523 35.4568 34.394C36.4487 32.8354 34.4652 15.834 46.5786 15.2674C58.6922 14.7007 58.1252 32.9063 59.1171 33.8982C60.1087 34.8898 71.9392 38.1484 72.5764 40.0613C73.214 41.974 73.5562 71.089 72.6351 72.0097C71.7144 72.9302 31.8086 73.1371 30.2147 72.2164Z" fill="#77797B"/>
<path d="M23.7684 41.3359C24.7362 40.4317 61.9508 40.4913 62.3051 41.3359C62.6592 42.1804 73.5499 72.6515 73.5499 72.6515C73.5499 72.6515 32.5172 73.1369 30.215 72.2162C27.9127 71.2954 22.2836 42.723 23.7684 41.3359Z" fill="#5DDE94"/>
<path d="M34.8454 44.7117C34.4528 44.9613 35.6956 49.7023 36.0244 50.1957C36.3536 50.6892 48.3361 50.744 48.6653 50.4973C48.9944 50.2506 47.9524 44.7117 47.6233 44.5471C47.2944 44.3825 35.147 44.5195 34.8454 44.7117Z" fill="#219653"/>
<path d="M84.8328 18.6619C84.8328 18.6619 50.4048 19.2285 47.3588 19.7243C44.3129 20.2201 43.8876 25.604 46.6504 26.3124C49.4132 27.0208 84.5494 26.7373 84.5494 26.7373L84.8328 18.6619Z" fill="#4C4E53"/>
<path d="M48.4609 20.2797L73.7563 19.8271" stroke="#26264C" stroke-width="0.198558" stroke-miterlimit="10" stroke-linecap="round" stroke-linejoin="round"/>
<path d="M110.705 45.8941C110.628 46.5352 110.541 47.2086 110.444 47.9143C110.36 48.5427 110.27 49.1936 110.177 49.8605C110.087 50.4921 109.993 51.1427 109.893 51.8001C109.323 55.6535 108.637 59.8581 107.999 63.428C107.938 63.7536 107.879 64.0724 107.825 64.3849C107.158 68.016 106.562 70.8514 106.223 71.7375C106.172 71.8759 106.123 71.9693 106.085 72.0082C105.969 72.1241 105.289 72.2208 104.187 72.3047H104.177C101.613 72.4981 96.7764 72.6042 91.483 72.6623H91.4797C91.4764 72.6656 91.4764 72.6656 91.4732 72.6623C89.672 72.6816 87.8229 72.6979 85.9861 72.7074H85.9829C77.145 72.7525 68.7425 72.7009 68.7425 72.7009C68.1334 72.4207 67.2637 69.9236 66.3518 66.447C66.2519 66.0603 66.1487 65.6609 66.0458 65.2484C65.4948 63.0286 64.9341 60.5024 64.422 57.941C64.3577 57.6252 64.293 57.3094 64.2319 56.9939C62.8047 49.706 61.7864 42.4113 62.3054 41.3352C62.4598 41.0194 62.792 40.681 63.2525 40.3299C63.5007 40.1398 63.7842 39.9498 64.0967 39.7564C65.1696 39.0863 66.5808 38.3871 67.9985 37.7104C68.298 37.5686 68.5912 37.4269 68.8845 37.2884H68.8878C69.2777 37.1048 69.6644 36.9243 70.038 36.7472C70.3375 36.6022 70.6341 36.4605 70.9143 36.3253C72.4545 35.5712 73.6756 34.898 73.9944 34.3954C74.207 34.0603 74.2844 33.0133 74.3905 31.5698C74.4196 31.1703 74.4516 30.7418 74.4937 30.2843V30.281C74.642 28.4995 74.8869 26.3535 75.4409 24.2496C75.544 23.8501 75.66 23.4537 75.7887 23.0608C77.0905 19.0754 79.6872 15.5214 85.1161 15.267C85.5446 15.2477 85.9571 15.251 86.3532 15.2768C86.7657 15.3026 87.1586 15.3509 87.5358 15.4218C91.2508 16.121 93.4674 18.8951 94.8433 22.0944C94.9723 22.3939 95.0915 22.6969 95.2074 22.9997C97.0376 27.8842 97.1212 33.3679 97.6529 33.8996C98.6451 34.8889 110.476 38.1492 111.114 40.0601C111.275 40.5458 111.092 42.7947 110.705 45.8941Z" fill="#219653"/>
<path d="M85.6698 18.9085C87.8881 18.2511 90.6856 25.7638 86.6696 26.0378C82.6534 26.3124 82.7083 19.7863 85.6698 18.9085Z" fill="white"/>
<path d="M97.3652 36.6085C97.3652 36.6085 108.018 40.3104 108.429 41.0096C108.841 41.7089 106.826 56.228 106.826 56.228" stroke="white" stroke-width="0.198558" stroke-miterlimit="10" stroke-linecap="round" stroke-linejoin="round"/>
<path d="M67.998 58.9977C67.998 58.9977 70.424 69.3627 71.3563 70.2401C72.2886 71.1176 84.5591 71.4245 84.5591 71.4245" stroke="white" stroke-width="0.198558" stroke-miterlimit="10" stroke-linecap="round" stroke-linejoin="round"/>
<path d="M80.4578 35.2506C77.9524 34.076 63.5825 41.3167 66.0467 43.99C70.7817 49.1262 84.7552 37.2649 80.4578 35.2506Z" fill="#D9FFE9"/>
<path d="M18.8365 33.4238C18.8365 33.4238 6.00431 19.0918 17.5628 5.91243C29.1211 -7.26696 48.2024 7.91076 48.2024 7.91076C48.2024 7.91076 49.6281 10.9742 48.4562 12.9907C47.2843 15.0071 26.9081 33.4944 25.2496 34.2936C23.5908 35.0933 18.8365 33.4238 18.8365 33.4238Z" fill="#DDDDDD"/>
<path d="M18.8361 33.4238C35.3815 21.4976 48.2021 7.91079 48.2021 7.91079L43.1865 3.80649C33.2856 12.765 21.8433 1.9751 21.8433 1.9751C18.4296 3.70922 15.2187 8.13882 15.2187 8.13882C15.2187 8.13882 25.8675 20.7785 15.2119 29.2519L18.8361 33.4238Z" fill="#77797B"/>
<path d="M21.7842 31.2535C32.7491 22.9823 39.7051 16.2122 39.7051 16.2122" stroke="#26264C" stroke-width="0.198558" stroke-miterlimit="10" stroke-linecap="round" stroke-linejoin="round"/>
<path d="M23.7656 3.50671C23.7656 3.50671 29.7422 8.21921 35.822 7.28424" stroke="#26264C" stroke-width="0.198558" stroke-miterlimit="10" stroke-linecap="round" stroke-linejoin="round"/>
<path d="M19.3745 16.0677C19.3745 16.0677 21.3989 22.0316 17.7744 26.6379" stroke="#26264C" stroke-width="0.198558" stroke-miterlimit="10" stroke-linecap="round" stroke-linejoin="round"/>
<path d="M26.1446 13.6011C21.4087 18.9313 26.7136 25.3361 32.166 19.9573C37.6183 14.5785 30.8675 8.28579 26.1446 13.6011Z" fill="#DDDDDD"/>
<path d="M32.0025 18.1857C34.4655 14.6036 30.1221 11.0224 27.0154 14.5191C26.5142 15.0831 26.1714 15.664 25.9639 16.2316" stroke="#26264C" stroke-width="0.198558" stroke-miterlimit="10" stroke-linecap="round" stroke-linejoin="round"/>
<path opacity="0.5" d="M25.3556 4.14597C26.3941 1.28236 35.583 2.60489 36.442 5.31727C37.3011 8.02936 23.7137 8.67462 25.3556 4.14597Z" fill="white"/>
<path d="M46.6049 8.04663L42.4062 12.0442" stroke="#26264C" stroke-width="0.198558" stroke-miterlimit="10" stroke-linecap="round" stroke-linejoin="round"/>
<path d="M21.4943 19.1791C21.7268 20.3513 21.5782 21.5961 21.0762 22.6808" stroke="#26264C" stroke-width="0.198558" stroke-miterlimit="10" stroke-linecap="round" stroke-linejoin="round"/>
<path d="M122.751 39.5834C126.356 35.9091 130.156 40.6112 127.914 43.4028C127.869 43.4603 127.819 43.522 127.763 43.5863C127.658 43.7171 127.536 43.8624 127.398 44.0231C126.71 44.8273 125.658 46.0057 124.429 47.3635C124.317 47.4887 124.204 47.6129 124.089 47.7395C123.434 48.4619 122.734 49.2261 122.017 50.0071C121.903 50.1326 121.789 50.258 121.673 50.3822C121.116 50.9901 120.551 51.6034 119.991 52.2113C119.87 52.342 119.749 52.4728 119.63 52.6021C119.011 53.2711 118.402 53.93 117.818 54.5613C117.702 54.6867 117.585 54.8124 117.471 54.9355C117.017 55.426 116.581 55.8945 116.17 56.3348C116.052 56.4617 115.938 56.5845 115.825 56.7064C114.134 58.5253 112.965 59.774 112.965 59.774L109.767 57.0323C109.767 57.0323 110.799 55.5152 112.311 53.3529C112.407 53.2156 112.507 53.0759 112.607 52.9321C113.039 52.3171 113.503 51.6588 113.988 50.9723C114.089 50.8312 114.189 50.6912 114.29 50.5501C115.821 48.3996 117.539 46.0339 119.107 43.984C119.209 43.8487 119.313 43.7144 119.415 43.5828C119.939 42.9004 120.446 42.2605 120.918 41.6808C121.03 41.5423 121.14 41.4089 121.249 41.279C121.814 40.5979 122.323 40.0202 122.751 39.5834Z" fill="#77797B"/>
<path d="M99.9516 58.9737C100.481 59.6148 108.762 66.9834 110.194 67.2417C111.625 67.4999 117.804 66.4117 118.282 65.853C118.761 65.2943 119.09 64.3789 119.038 64.1067C118.987 63.8345 106.172 51.6509 105.045 51.7683C103.919 51.8857 99.1702 58.0275 99.9516 58.9737Z" fill="#DDDDDD"/>
<path d="M100.453 58.7206C103.664 56.1719 105.233 53.1458 105.233 53.1458" stroke="#4C4E53" stroke-width="0.198558" stroke-miterlimit="10" stroke-linecap="round" stroke-linejoin="round"/>
<path d="M5.23205 42.538C5.18273 42.5712 4.61196 41.809 3.95789 40.8357C3.30382 39.8621 2.81347 39.0459 2.86279 39.0128C2.91212 38.9796 3.48247 39.7414 4.13695 40.7151C4.79103 41.6887 5.28138 42.5049 5.23205 42.538Z" fill="#263238"/>
<path d="M5.94965 42.2852C5.89203 42.3001 5.60852 41.3887 5.3163 40.2504C5.02409 39.1114 4.83424 38.1763 4.89227 38.1618C4.94989 38.1469 5.23341 39.0579 5.52563 40.197C5.81743 41.3352 6.00726 42.2703 5.94965 42.2852Z" fill="#263238"/>
<path d="M8.04624 38.1261C8.10303 38.1593 7.61517 38.9945 7.28399 40.1252C6.94328 41.2539 6.8956 42.2197 6.8297 42.2164C6.77623 42.2209 6.72691 41.2261 7.07674 40.0639C7.4187 38.8992 8.00397 38.0929 8.04624 38.1261Z" fill="#263238"/>
<path d="M109.133 23.1391C109.062 23.1868 108.241 22.0901 107.3 20.6898C106.359 19.289 105.654 18.1148 105.725 18.0671C105.796 18.0193 106.616 19.1155 107.558 20.5163C108.5 21.9172 109.205 23.0914 109.133 23.1391Z" fill="#263238"/>
<path d="M28.6315 89.5477C28.5605 89.5954 27.7393 88.4987 26.7983 87.0984C25.8566 85.6976 25.1517 84.5233 25.2227 84.4756C25.2937 84.4279 26.1142 85.524 27.0559 86.9249C27.9976 88.3257 28.7031 89.5 28.6315 89.5477Z" fill="#263238"/>
<path d="M73.8917 83.5931C73.8342 83.6317 73.1694 82.7438 72.4075 81.6102C71.6451 80.4761 71.0745 79.5254 71.1319 79.4868C71.1894 79.4482 71.8537 80.3356 72.6161 81.4697C73.3784 82.6038 73.9496 83.5545 73.8917 83.5931Z" fill="#263238"/>
<path d="M110.163 22.7744C110.08 22.7959 109.672 21.4845 109.252 19.8469C108.832 18.2081 108.558 16.8627 108.642 16.8418C108.725 16.8203 109.133 18.1312 109.553 19.77C109.973 21.4076 110.247 22.753 110.163 22.7744Z" fill="#263238"/>
<path d="M29.6614 89.183C29.5785 89.2045 29.1705 87.8931 28.7501 86.2555C28.3297 84.6167 28.0565 83.2713 28.14 83.2504C28.2229 83.2289 28.6308 84.5397 29.0513 86.1785C29.4711 87.8161 29.7448 89.1615 29.6614 89.183Z" fill="#263238"/>
<path d="M74.7253 83.2978C74.6582 83.3152 74.3279 82.2535 73.9875 80.9277C73.6471 79.601 73.426 78.5117 73.4936 78.4948C73.5607 78.4775 73.891 79.5387 74.2313 80.8654C74.5712 82.1912 74.7929 83.2805 74.7253 83.2978Z" fill="#263238"/>
<path d="M113.182 16.7904C113.264 16.8382 112.562 18.0398 112.086 19.6667C111.595 21.2906 111.527 22.6801 111.432 22.6754C111.356 22.6819 111.284 21.2507 111.787 19.5785C112.28 17.9033 113.122 16.7433 113.182 16.7904Z" fill="#263238"/>
<path d="M32.6803 83.199C32.762 83.2467 32.0601 84.4484 31.5836 86.0753C31.0934 87.6992 31.0248 89.0887 30.93 89.0839C30.8536 89.0905 30.7821 87.6592 31.2854 85.987C31.778 84.3118 32.6201 83.1519 32.6803 83.199Z" fill="#263238"/>
<path d="M77.1697 78.4533C77.2359 78.4919 76.6676 79.4648 76.2819 80.7819C75.885 82.0966 75.8295 83.2215 75.7527 83.2176C75.6909 83.223 75.633 82.0642 76.0405 80.7104C76.4393 79.3542 77.121 78.4151 77.1697 78.4533Z" fill="#263238"/>
<path d="M2.74573 72.3917C2.6964 72.4248 2.12564 71.6626 1.47156 70.6894C0.817076 69.7157 0.327142 68.8996 0.376467 68.8664C0.425792 68.8332 0.996141 69.5951 1.65063 70.5687C2.3047 71.5424 2.79505 72.3585 2.74573 72.3917Z" fill="#263238"/>
<path d="M3.46332 72.1384C3.40571 72.1533 3.12218 71.2418 2.82996 70.1036C2.53774 68.9646 2.34791 68.0295 2.40594 68.015C2.46356 68 2.74707 68.9111 3.03929 70.0501C3.33109 71.1883 3.52093 72.1238 3.46332 72.1384Z" fill="#263238"/>
<path d="M5.56049 67.9794C5.61727 68.0125 5.1294 68.8477 4.79822 69.9785C4.45751 71.1071 4.40984 72.0729 4.34435 72.0696C4.29088 72.0742 4.24156 71.0794 4.59139 69.9167C4.93294 68.7528 5.51821 67.9466 5.56049 67.9794Z" fill="#263238"/>
<path d="M121.356 83.1966C121.307 83.2298 120.736 82.4675 120.082 81.4943C119.427 80.5206 118.937 79.7045 118.987 79.6713C119.036 79.6382 119.607 80.4 120.261 81.3737C120.915 82.3473 121.406 83.1634 121.356 83.1966Z" fill="#263238"/>
<path d="M122.074 82.9439C122.016 82.9588 121.733 82.0473 121.44 80.9091C121.148 79.7701 120.958 78.835 121.016 78.8205C121.074 78.8056 121.357 79.7166 121.65 80.8557C121.941 81.9939 122.131 82.929 122.074 82.9439Z" fill="#263238"/>
<path d="M124.171 78.7848C124.228 78.8179 123.74 79.6531 123.409 80.7839C123.068 81.9126 123.02 82.8783 122.955 82.875C122.901 82.8796 122.852 81.8848 123.202 80.7221C123.544 79.5578 124.129 78.752 124.171 78.7848Z" fill="#263238"/>
</svg>
