<svg width="22" height="16" viewBox="0 0 22 16" fill="none" xmlns="http://www.w3.org/2000/svg">
<path d="M20.5977 1.62628C19.8337 0.718109 18.4232 0.347656 15.7294 0.347656H5.95088C3.19542 0.347656 1.76099 0.742005 0.999878 1.7089C0.257812 2.65162 0.257812 4.04064 0.257812 5.96309V9.62727C0.257812 13.3517 1.13827 15.2426 5.95088 15.2426H15.7294C18.0655 15.2426 19.36 14.9157 20.1974 14.1143C21.0562 13.2924 21.4226 11.9505 21.4226 9.62727V5.96309C21.4226 3.93571 21.3652 2.53849 20.5977 1.62628ZM13.8457 8.30106L9.40532 10.6217C9.30126 10.6762 9.18492 10.7029 9.06754 10.6992C8.95015 10.6955 8.8357 10.6616 8.73525 10.6008C8.6348 10.5399 8.55175 10.4542 8.49413 10.3519C8.43651 10.2495 8.40627 10.1341 8.40634 10.0166V5.39014C8.40634 5.27288 8.43655 5.15759 8.49405 5.0554C8.55155 4.9532 8.6344 4.86754 8.73462 4.80666C8.83485 4.74578 8.94906 4.71174 9.06625 4.70782C9.18345 4.7039 9.29968 4.73024 9.40375 4.78428L13.8441 7.09002C13.955 7.14756 14.0479 7.2344 14.1128 7.34107C14.1777 7.44775 14.2121 7.57019 14.2122 7.69506C14.2124 7.81993 14.1783 7.94246 14.1137 8.0493C14.0491 8.15615 13.9564 8.24323 13.8457 8.30106Z" fill="white"/>
</svg>
